<svg xmlns="http://www.w3.org/2000/svg" xmlns:xlink="http://www.w3.org/1999/xlink" width="100" zoomAndPan="magnify" viewBox="0 0 75 74.999997" height="100" preserveAspectRatio="xMidYMid meet" version="1.0"><rect x="-7.5" width="90" fill="#ffffff" y="-7.5" height="89.999996" fill-opacity="1"/><rect x="-7.5" width="90" fill="#ffffff" y="-7.5" height="89.999996" fill-opacity="1"/><path fill="#000000" d="M 37.382812 75.027344 C 36.15625 75.027344 34.929688 74.964844 33.707031 74.84375 C 32.484375 74.726562 31.269531 74.542969 30.066406 74.304688 C 28.859375 74.066406 27.671875 73.765625 26.496094 73.410156 C 25.320312 73.054688 24.164062 72.640625 23.027344 72.171875 C 21.894531 71.699219 20.785156 71.175781 19.699219 70.597656 C 18.617188 70.015625 17.5625 69.386719 16.542969 68.703125 C 15.519531 68.019531 14.535156 67.289062 13.585938 66.511719 C 12.636719 65.730469 11.726562 64.90625 10.859375 64.039062 C 9.988281 63.167969 9.164062 62.261719 8.386719 61.3125 C 7.605469 60.359375 6.875 59.375 6.191406 58.355469 C 5.511719 57.332031 4.878906 56.28125 4.300781 55.195312 C 3.722656 54.113281 3.195312 53.003906 2.726562 51.867188 C 2.257812 50.734375 1.84375 49.578125 1.484375 48.402344 C 1.128906 47.226562 0.832031 46.035156 0.59375 44.832031 C 0.351562 43.625 0.171875 42.414062 0.0507812 41.191406 C -0.0703125 39.96875 -0.128906 38.742188 -0.128906 37.511719 C -0.128906 36.285156 -0.0703125 35.058594 0.0507812 33.835938 C 0.171875 32.613281 0.351562 31.398438 0.59375 30.195312 C 0.832031 28.988281 1.128906 27.800781 1.484375 26.625 C 1.84375 25.449219 2.257812 24.292969 2.726562 23.15625 C 3.195312 22.023438 3.722656 20.914062 4.300781 19.828125 C 4.878906 18.746094 5.511719 17.695312 6.191406 16.671875 C 6.875 15.648438 7.605469 14.664062 8.386719 13.714844 C 9.164062 12.765625 9.988281 11.855469 10.859375 10.988281 C 11.726562 10.117188 12.636719 9.292969 13.585938 8.515625 C 14.535156 7.734375 15.519531 7.003906 16.542969 6.320312 C 17.5625 5.640625 18.617188 5.007812 19.699219 4.429688 C 20.785156 3.851562 21.894531 3.324219 23.027344 2.855469 C 24.164062 2.386719 25.320312 1.972656 26.496094 1.617188 C 27.671875 1.257812 28.859375 0.960938 30.066406 0.722656 C 31.269531 0.480469 32.484375 0.300781 33.707031 0.179688 C 34.929688 0.0585938 36.15625 0 37.382812 0 L 38.671875 0 L 38.671875 2.578125 L 37.382812 2.578125 C 36.238281 2.578125 35.097656 2.636719 33.960938 2.746094 C 32.820312 2.859375 31.691406 3.027344 30.570312 3.25 C 29.445312 3.472656 28.339844 3.75 27.242188 4.082031 C 26.148438 4.414062 25.074219 4.800781 24.015625 5.238281 C 22.957031 5.675781 21.925781 6.164062 20.917969 6.703125 C 19.90625 7.242188 18.925781 7.832031 17.976562 8.46875 C 17.023438 9.101562 16.105469 9.785156 15.222656 10.507812 C 14.339844 11.234375 13.492188 12.003906 12.683594 12.8125 C 11.875 13.621094 11.105469 14.46875 10.378906 15.351562 C 9.652344 16.234375 8.972656 17.152344 8.339844 18.105469 C 7.703125 19.054688 7.113281 20.035156 6.574219 21.046875 C 6.035156 22.054688 5.546875 23.085938 5.109375 24.144531 C 4.671875 25.203125 4.285156 26.277344 3.953125 27.371094 C 3.621094 28.46875 3.34375 29.574219 3.121094 30.699219 C 2.898438 31.820312 2.730469 32.949219 2.617188 34.089844 C 2.507812 35.226562 2.449219 36.367188 2.449219 37.511719 C 2.449219 38.65625 2.507812 39.796875 2.617188 40.9375 C 2.730469 42.074219 2.898438 43.207031 3.121094 44.328125 C 3.34375 45.449219 3.621094 46.558594 3.953125 47.652344 C 4.285156 48.75 4.671875 49.824219 5.109375 50.882812 C 5.546875 51.9375 6.035156 52.972656 6.574219 53.980469 C 7.113281 54.988281 7.703125 55.96875 8.339844 56.921875 C 8.972656 57.871094 9.652344 58.789062 10.378906 59.675781 C 11.105469 60.558594 11.875 61.40625 12.683594 62.214844 C 13.492188 63.023438 14.339844 63.789062 15.222656 64.515625 C 16.105469 65.242188 17.023438 65.921875 17.976562 66.558594 C 18.925781 67.195312 19.90625 67.78125 20.917969 68.320312 C 21.925781 68.859375 22.957031 69.347656 24.015625 69.785156 C 25.074219 70.226562 26.148438 70.609375 27.242188 70.941406 C 28.339844 71.273438 29.445312 71.550781 30.570312 71.773438 C 31.691406 72 32.820312 72.164062 33.960938 72.277344 C 35.097656 72.390625 36.238281 72.445312 37.382812 72.445312 C 38.527344 72.445312 39.667969 72.390625 40.808594 72.277344 C 41.945312 72.164062 43.078125 72 44.199219 71.773438 C 45.320312 71.550781 46.429688 71.273438 47.523438 70.941406 C 48.621094 70.609375 49.695312 70.226562 50.753906 69.785156 C 51.808594 69.347656 52.84375 68.859375 53.851562 68.320312 C 54.859375 67.78125 55.839844 67.195312 56.792969 66.558594 C 57.742188 65.921875 58.660156 65.242188 59.546875 64.515625 C 60.429688 63.789062 61.277344 63.023438 62.085938 62.214844 C 62.894531 61.40625 63.660156 60.558594 64.386719 59.675781 C 65.113281 58.789062 65.792969 57.871094 66.429688 56.921875 C 67.066406 55.96875 67.652344 54.988281 68.191406 53.980469 C 68.730469 52.972656 69.21875 51.9375 69.65625 50.882812 C 70.097656 49.824219 70.480469 48.75 70.8125 47.652344 C 71.144531 46.558594 71.421875 45.449219 71.644531 44.328125 C 71.871094 43.207031 72.035156 42.074219 72.148438 40.9375 C 72.261719 39.796875 72.316406 38.65625 72.316406 37.511719 L 72.316406 36.222656 L 74.898438 36.222656 L 74.898438 37.511719 C 74.894531 38.742188 74.835938 39.964844 74.710938 41.1875 C 74.589844 42.410156 74.410156 43.625 74.167969 44.828125 C 73.929688 46.03125 73.628906 47.222656 73.273438 48.398438 C 72.914062 49.574219 72.5 50.726562 72.03125 51.863281 C 71.558594 52.996094 71.035156 54.105469 70.457031 55.1875 C 69.875 56.273438 69.246094 57.324219 68.5625 58.34375 C 67.878906 59.367188 67.148438 60.351562 66.371094 61.300781 C 65.589844 62.25 64.765625 63.160156 63.898438 64.027344 C 63.03125 64.894531 62.121094 65.71875 61.171875 66.5 C 60.222656 67.277344 59.238281 68.007812 58.214844 68.691406 C 57.195312 69.375 56.144531 70.003906 55.058594 70.585938 C 53.976562 71.164062 52.867188 71.6875 51.734375 72.160156 C 50.597656 72.628906 49.445312 73.042969 48.269531 73.402344 C 47.09375 73.757812 45.902344 74.058594 44.699219 74.296875 C 43.496094 74.539062 42.28125 74.71875 41.058594 74.839844 C 39.835938 74.964844 38.613281 75.023438 37.382812 75.027344 Z M 37.382812 75.027344 " fill-opacity="1" fill-rule="nonzero"/></svg>