<svg xmlns="http://www.w3.org/2000/svg" xmlns:xlink="http://www.w3.org/1999/xlink" width="500" zoomAndPan="magnify" viewBox="0 0 375 374.999991" height="500" preserveAspectRatio="xMidYMid meet" version="1.0"><defs><clipPath id="24d4bdc6b3"><path d="M 0 0 L 371.570312 0 L 371.570312 375 L 0 375 Z M 0 0 " clip-rule="nonzero"/></clipPath><clipPath id="439625fd70"><path d="M 184.070312 0 C 80.515625 0 -3.429688 83.945312 -3.429688 187.5 C -3.429688 291.054688 80.515625 375 184.070312 375 C 287.621094 375 371.570312 291.054688 371.570312 187.5 C 371.570312 83.945312 287.621094 0 184.070312 0 Z M 184.070312 0 " clip-rule="nonzero"/></clipPath></defs><rect x="-37.5" width="450" fill="#ffffff" y="-37.499999" height="449.999989" fill-opacity="1"/><rect x="-37.5" width="450" fill="#ffffff" y="-37.499999" height="449.999989" fill-opacity="1"/><g clip-path="url(#24d4bdc6b3)"><g clip-path="url(#439625fd70)"><path fill="#000000" d="M -3.429688 0 L 371.570312 0 L 371.570312 375 L -3.429688 375 Z M -3.429688 0 " fill-opacity="1" fill-rule="nonzero"/></g></g><path fill="#e64a19" d="M 197.484375 140.164062 L 143.484375 140.164062 C 117.390625 140.164062 96.234375 119.011719 96.234375 92.914062 C 96.234375 66.820312 117.390625 45.664062 143.484375 45.664062 L 197.484375 45.664062 Z M 197.484375 140.164062 " fill-opacity="1" fill-rule="nonzero"/><path fill="#7c4dff" d="M 190.734375 234.664062 L 143.484375 234.664062 C 117.390625 234.664062 96.234375 213.511719 96.234375 187.414062 C 96.234375 161.320312 117.390625 140.164062 143.484375 140.164062 L 190.734375 140.164062 Z M 190.734375 234.664062 " fill-opacity="1" fill-rule="nonzero"/><path fill="#66bb6a" d="M 143.484375 329.164062 C 117.390625 329.164062 96.234375 308.011719 96.234375 281.914062 C 96.234375 255.820312 117.390625 234.664062 143.484375 234.664062 L 190.734375 234.664062 L 190.734375 281.914062 C 190.734375 308.011719 169.582031 329.164062 143.484375 329.164062 Z M 143.484375 329.164062 " fill-opacity="1" fill-rule="nonzero"/><path fill="#ff7043" d="M 237.984375 140.164062 L 190.734375 140.164062 L 190.734375 45.664062 L 237.984375 45.664062 C 264.082031 45.664062 285.234375 66.820312 285.234375 92.914062 C 285.234375 119.011719 264.082031 140.164062 237.984375 140.164062 Z M 237.984375 140.164062 " fill-opacity="1" fill-rule="nonzero"/><path fill="#29b6f6" d="M 285.234375 187.414062 C 285.234375 188.964844 285.160156 190.507812 285.007812 192.046875 C 284.855469 193.585938 284.628906 195.117188 284.328125 196.632812 C 284.023438 198.152344 283.648438 199.652344 283.199219 201.132812 C 282.75 202.613281 282.230469 204.066406 281.636719 205.496094 C 281.046875 206.925781 280.386719 208.324219 279.65625 209.6875 C 278.925781 211.054688 278.132812 212.378906 277.273438 213.667969 C 276.410156 214.953125 275.492188 216.195312 274.507812 217.390625 C 273.527344 218.585938 272.488281 219.730469 271.394531 220.828125 C 270.300781 221.921875 269.15625 222.957031 267.960938 223.941406 C 266.761719 224.921875 265.523438 225.84375 264.234375 226.703125 C 262.949219 227.5625 261.621094 228.355469 260.257812 229.085938 C 258.894531 229.816406 257.496094 230.476562 256.066406 231.070312 C 254.636719 231.660156 253.179688 232.183594 251.699219 232.632812 C 250.21875 233.082031 248.71875 233.457031 247.203125 233.757812 C 245.683594 234.058594 244.15625 234.285156 242.617188 234.4375 C 241.074219 234.589844 239.53125 234.664062 237.984375 234.664062 C 236.4375 234.664062 234.894531 234.589844 233.351562 234.4375 C 231.8125 234.285156 230.285156 234.058594 228.765625 233.757812 C 227.25 233.457031 225.75 233.082031 224.269531 232.632812 C 222.789062 232.183594 221.332031 231.660156 219.902344 231.070312 C 218.472656 230.476562 217.074219 229.816406 215.710938 229.085938 C 214.347656 228.355469 213.019531 227.5625 211.734375 226.703125 C 210.445312 225.84375 209.207031 224.921875 208.007812 223.941406 C 206.8125 222.957031 205.667969 221.921875 204.574219 220.828125 C 203.480469 219.730469 202.441406 218.585938 201.460938 217.390625 C 200.476562 216.195312 199.558594 214.953125 198.699219 213.667969 C 197.839844 212.378906 197.042969 211.054688 196.3125 209.6875 C 195.585938 208.324219 194.921875 206.925781 194.332031 205.496094 C 193.738281 204.066406 193.21875 202.613281 192.769531 201.132812 C 192.320312 199.652344 191.945312 198.152344 191.640625 196.632812 C 191.339844 195.117188 191.113281 193.585938 190.960938 192.046875 C 190.808594 190.507812 190.734375 188.964844 190.734375 187.414062 C 190.734375 185.867188 190.808594 184.324219 190.960938 182.785156 C 191.113281 181.246094 191.339844 179.714844 191.640625 178.199219 C 191.945312 176.679688 192.320312 175.179688 192.769531 173.699219 C 193.21875 172.21875 193.738281 170.761719 194.332031 169.332031 C 194.921875 167.902344 195.585938 166.507812 196.3125 165.140625 C 197.042969 163.777344 197.839844 162.453125 198.699219 161.164062 C 199.558594 159.878906 200.476562 158.636719 201.460938 157.441406 C 202.441406 156.246094 203.480469 155.097656 204.574219 154.003906 C 205.667969 152.910156 206.8125 151.871094 208.007812 150.890625 C 209.207031 149.910156 210.445312 148.988281 211.734375 148.128906 C 213.019531 147.269531 214.347656 146.472656 215.710938 145.746094 C 217.074219 145.015625 218.472656 144.355469 219.902344 143.761719 C 221.332031 143.171875 222.789062 142.648438 224.269531 142.199219 C 225.75 141.75 227.25 141.375 228.765625 141.074219 C 230.285156 140.773438 231.8125 140.542969 233.351562 140.394531 C 234.894531 140.242188 236.4375 140.164062 237.984375 140.164062 C 239.53125 140.164062 241.074219 140.242188 242.617188 140.394531 C 244.15625 140.542969 245.683594 140.773438 247.203125 141.074219 C 248.71875 141.375 250.21875 141.75 251.699219 142.199219 C 253.179688 142.648438 254.636719 143.171875 256.066406 143.761719 C 257.496094 144.355469 258.894531 145.015625 260.257812 145.746094 C 261.621094 146.472656 262.949219 147.269531 264.234375 148.128906 C 265.523438 148.988281 266.761719 149.910156 267.960938 150.890625 C 269.15625 151.871094 270.300781 152.910156 271.394531 154.003906 C 272.488281 155.097656 273.527344 156.246094 274.507812 157.441406 C 275.492188 158.636719 276.410156 159.878906 277.273438 161.164062 C 278.132812 162.453125 278.925781 163.777344 279.65625 165.140625 C 280.386719 166.507812 281.046875 167.902344 281.636719 169.332031 C 282.230469 170.761719 282.75 172.21875 283.199219 173.699219 C 283.648438 175.179688 284.023438 176.679688 284.328125 178.199219 C 284.628906 179.714844 284.855469 181.246094 285.007812 182.785156 C 285.160156 184.324219 285.234375 185.867188 285.234375 187.414062 Z M 285.234375 187.414062 " fill-opacity="1" fill-rule="nonzero"/></svg>