<svg xmlns="http://www.w3.org/2000/svg" xmlns:xlink="http://www.w3.org/1999/xlink" width="500" zoomAndPan="magnify" viewBox="0 0 375 374.999991" height="500" preserveAspectRatio="xMidYMid meet" version="1.0"><path fill="#100f0d" d="M 187.5 0 C 291.054688 0 375 83.945312 375 187.5 C 375 291.054688 291.054688 375 187.5 375 C 83.945312 375 0 291.054688 0 187.5 C 0 83.945312 83.945312 0 187.5 0 " fill-opacity="1" fill-rule="nonzero"/><path fill="#ffffff" d="M 156.09375 234.210938 L 73.148438 198.152344 L 73.148438 178.183594 L 156.09375 142.289062 L 156.09375 165.808594 L 98.226562 187.933594 L 156.09375 210.878906 L 156.09375 234.210938 " fill-opacity="1" fill-rule="nonzero"/><path fill="#ffffff" d="M 163.769531 250.054688 L 193.734375 124.933594 L 211.148438 124.933594 L 180.855469 250.054688 L 163.769531 250.054688 " fill-opacity="1" fill-rule="nonzero"/><path fill="#ffffff" d="M 218.824219 234.304688 L 218.824219 210.9375 L 276.761719 188.15625 L 218.824219 165.632812 L 218.824219 142.441406 L 301.851562 178.335938 L 301.851562 198.140625 L 218.824219 234.304688 " fill-opacity="1" fill-rule="nonzero"/></svg>