<svg xmlns="http://www.w3.org/2000/svg" xmlns:xlink="http://www.w3.org/1999/xlink" width="500" zoomAndPan="magnify" viewBox="0 0 375 374.999991" height="500" preserveAspectRatio="xMidYMid meet" version="1.0"><defs><clipPath id="803e1582c2"><path d="M 56.25 38 L 318.75 38 L 318.75 337.5 L 56.25 337.5 Z M 56.25 38 " clip-rule="nonzero"/></clipPath></defs><g clip-path="url(#803e1582c2)"><path fill="#ffffff" d="M 155.308594 300.492188 C 147.640625 304.9375 146.183594 305.457031 138.976562 308.011719 C 137.234375 308.609375 134.59375 309.664062 139.972656 312.753906 L 176.074219 334.386719 C 179.519531 336.417969 183.503906 337.476562 187.425781 337.476562 L 187.449219 337.5 C 191.421875 337.5 195.34375 336.429688 198.789062 334.414062 L 306.863281 271.214844 C 313.886719 267.070312 318.21875 259.414062 318.21875 251.234375 L 318.21875 124.910156 C 318.21875 116.671875 313.898438 109.015625 306.863281 104.929688 L 198.789062 41.671875 C 192.007812 37.761719 182.929688 37.761719 176.085938 41.671875 L 68.136719 104.871094 C 61.125 108.964844 56.792969 116.671875 56.792969 124.847656 L 56.792969 251.171875 C 56.792969 259.414062 61.113281 267.070312 68.136719 271.152344 L 96.453125 287.695312 C 110.148438 294.578125 115.050781 294.578125 121.3125 294.578125 C 141.617188 294.578125 153.316406 282.128906 153.316406 260.433594 L 153.316406 135.652344 C 153.316406 133.886719 151.859375 132.515625 150.15625 132.515625 L 136.460938 132.515625 C 134.707031 132.515625 133.300781 133.875 133.300781 135.652344 L 133.300781 260.371094 C 133.300781 270.03125 123.46875 279.578125 107.371094 271.460938 L 77.769531 254.148438 C 76.738281 253.613281 76.089844 252.429688 76.089844 251.234375 L 76.089844 124.910156 C 76.089844 123.679688 76.738281 122.484375 77.78125 121.886719 L 185.730469 58.6875 C 186.714844 58.089844 188.074219 58.089844 189.070312 58.6875 L 297.082031 121.824219 C 298.125 122.472656 298.773438 123.605469 298.773438 124.847656 L 298.773438 251.234375 C 298.773438 252.40625 298.140625 253.597656 297.144531 254.195312 L 189.070312 317.394531 C 188.136719 317.992188 186.726562 317.992188 185.730469 317.394531 L 157.996094 300.742188 C 157.175781 300.207031 156.128906 300.019531 155.308594 300.492188 Z M 155.308594 300.492188 " fill-opacity="1" fill-rule="nonzero"/></g><path fill="#ffffff" d="M 220.785156 231.304688 C 192.179688 231.304688 185.90625 224.011719 183.816406 209.609375 C 183.578125 208.0625 182.296875 206.945312 180.714844 206.945312 L 166.738281 206.945312 C 164.980469 206.945312 163.636719 208.363281 163.636719 210.082031 C 163.636719 228.515625 173.519531 250.511719 220.847656 250.511719 C 255.007812 250.449219 274.6875 236.769531 274.6875 212.929688 L 274.648438 212.945312 C 274.648438 189.292969 258.851562 183.007812 225.679688 178.5625 C 192.09375 174.054688 188.707031 171.742188 188.707031 163.796875 C 188.707031 157.226562 191.582031 148.449219 216.441406 148.449219 C 238.625 148.449219 246.816406 153.304688 250.203125 168.480469 C 250.488281 169.910156 251.78125 170.96875 253.25 170.96875 L 267.292969 170.96875 C 268.164062 170.96875 268.984375 170.621094 269.570312 169.960938 C 270.15625 169.300781 270.441406 168.417969 270.390625 167.53125 C 268.226562 141.390625 251.085938 129.242188 216.441406 129.242188 C 185.609375 129.242188 167.234375 142.414062 167.234375 164.507812 C 167.234375 188.457031 185.546875 195.105469 215.097656 198.054688 C 250.5 201.566406 253.238281 206.832031 253.238281 213.890625 C 253.261719 226.101562 243.554688 231.304688 220.785156 231.304688 Z M 220.785156 231.304688 " fill-opacity="1" fill-rule="nonzero"/><path fill="#3747d6" d="M 16.96875 3.730469 C 12.101562 3.730469 7.46875 5.824219 4.246094 9.472656 C 1.027344 13.121094 -0.472656 17.976562 0.132812 22.804688 L 34.066406 294.296875 C 34.773438 299.929688 38.242188 304.832031 43.316406 307.371094 L 179.0625 375.242188 C 183.839844 377.632812 189.464844 377.632812 194.238281 375.242188 L 329.988281 307.371094 C 335.0625 304.832031 338.53125 299.929688 339.234375 294.296875 L 373.171875 22.804688 C 373.777344 17.976562 372.277344 13.121094 369.054688 9.472656 C 365.835938 5.824219 361.203125 3.730469 356.335938 3.730469 Z M 16.96875 3.730469 " fill-opacity="1" fill-rule="nonzero"/><path fill="#90caea" d="M 144.230469 262.953125 L 144.230469 71.605469 L 178.167969 71.605469 L 178.167969 292.195312 C 178.167969 298.242188 174.945312 303.835938 169.714844 306.871094 C 164.484375 309.90625 158.03125 309.925781 152.78125 306.925781 L 93.390625 272.988281 L 110.230469 243.523438 Z M 144.230469 262.953125 " fill-opacity="1" fill-rule="evenodd"/><path fill="#90caea" d="M 195.136719 71.605469 C 195.136719 62.234375 202.734375 54.636719 212.105469 54.636719 L 296.945312 54.636719 L 296.945312 88.574219 L 229.074219 88.574219 L 229.074219 160.746094 L 284.78125 148.367188 C 290.070312 147.191406 295.601562 148.613281 299.667969 152.191406 C 303.738281 155.769531 305.851562 161.074219 305.359375 166.46875 L 296.875 259.792969 C 296.34375 265.644531 292.824219 270.804688 287.566406 273.433594 L 219.691406 307.371094 L 204.515625 277.015625 L 263.933594 247.308594 L 269.457031 186.539062 L 215.785156 198.464844 C 210.761719 199.582031 205.5 198.355469 201.488281 195.136719 C 197.472656 191.914062 195.136719 187.046875 195.136719 181.898438 Z M 195.136719 71.605469 " fill-opacity="1" fill-rule="evenodd"/></svg>