<svg xmlns="http://www.w3.org/2000/svg" xmlns:xlink="http://www.w3.org/1999/xlink" width="500" zoomAndPan="magnify" viewBox="0 0 375 374.999991" height="500" preserveAspectRatio="xMidYMid meet" version="1.0"><defs><clipPath id="018a560df8"><path d="M 18 17.988281 L 357.601562 17.988281 L 357.601562 356.988281 L 18 356.988281 Z M 18 17.988281 " clip-rule="nonzero"/></clipPath></defs><rect x="-37.5" width="450" fill="#ffffff" y="-37.499999" height="449.999989" fill-opacity="1"/><rect x="-37.5" width="450" fill="#ffffff" y="-37.499999" height="449.999989" fill-opacity="1"/><g clip-path="url(#018a560df8)"><path fill="#000000" d="M 357.601562 187.332031 C 357.597656 189.753906 357.546875 192.179688 357.441406 194.601562 C 357.335938 197.023438 357.175781 199.445312 356.96875 201.859375 C 356.757812 204.277344 356.5 206.6875 356.1875 209.089844 C 355.875 211.496094 355.511719 213.894531 355.097656 216.28125 C 354.679688 218.671875 354.214844 221.050781 353.699219 223.417969 C 353.183594 225.789062 352.613281 228.144531 351.996094 230.492188 C 351.378906 232.835938 350.710938 235.167969 349.996094 237.484375 C 349.277344 239.800781 348.511719 242.097656 347.695312 244.382812 C 346.878906 246.667969 346.015625 248.929688 345.101562 251.179688 C 344.1875 253.425781 343.230469 255.652344 342.21875 257.855469 C 341.210938 260.0625 340.15625 262.242188 339.054688 264.402344 C 337.953125 266.5625 336.808594 268.699219 335.613281 270.8125 C 334.421875 272.921875 333.183594 275.007812 331.902344 277.0625 C 330.617188 279.121094 329.292969 281.152344 327.921875 283.152344 C 326.554688 285.15625 325.144531 287.125 323.691406 289.066406 C 322.234375 291.007812 320.742188 292.914062 319.207031 294.792969 C 317.671875 296.667969 316.097656 298.511719 314.480469 300.320312 C 312.867188 302.128906 311.214844 303.90625 309.527344 305.644531 C 307.835938 307.382812 306.109375 309.082031 304.347656 310.746094 C 302.582031 312.414062 300.785156 314.039062 298.953125 315.625 C 297.121094 317.214844 295.253906 318.761719 293.355469 320.269531 C 291.457031 321.777344 289.527344 323.242188 287.5625 324.667969 C 285.601562 326.09375 283.609375 327.472656 281.589844 328.8125 C 279.570312 330.152344 277.519531 331.449219 275.445312 332.703125 C 273.367188 333.953125 271.265625 335.160156 269.136719 336.320312 C 267.011719 337.484375 264.859375 338.597656 262.683594 339.667969 C 260.507812 340.738281 258.308594 341.761719 256.089844 342.738281 C 253.871094 343.710938 251.628906 344.640625 249.371094 345.519531 C 247.113281 346.398438 244.835938 347.230469 242.539062 348.011719 C 240.246094 348.792969 237.933594 349.527344 235.609375 350.210938 C 233.28125 350.890625 230.941406 351.523438 228.589844 352.109375 C 226.238281 352.691406 223.871094 353.222656 221.496094 353.703125 C 219.121094 354.1875 216.734375 354.617188 214.339844 354.996094 C 211.945312 355.375 209.542969 355.703125 207.136719 355.980469 C 204.726562 356.257812 202.3125 356.480469 199.894531 356.652344 C 197.476562 356.828125 195.054688 356.949219 192.632812 357.019531 C 190.210938 357.085938 187.785156 357.105469 185.363281 357.070312 C 182.9375 357.035156 180.515625 356.949219 178.09375 356.8125 C 175.675781 356.671875 173.257812 356.484375 170.847656 356.242188 C 168.433594 356 166.027344 355.707031 163.628906 355.363281 C 161.226562 355.015625 158.835938 354.621094 156.453125 354.171875 C 154.070312 353.726562 151.699219 353.230469 149.339844 352.679688 C 146.976562 352.132812 144.628906 351.53125 142.292969 350.882812 C 139.957031 350.234375 137.636719 349.535156 135.328125 348.785156 C 133.023438 348.035156 130.734375 347.238281 128.464844 346.390625 C 126.191406 345.542969 123.9375 344.648438 121.707031 343.707031 C 119.472656 342.761719 117.261719 341.773438 115.070312 340.734375 C 112.878906 339.695312 110.710938 338.609375 108.566406 337.480469 C 106.421875 336.347656 104.300781 335.171875 102.207031 333.949219 C 100.113281 332.730469 98.046875 331.464844 96.007812 330.152344 C 93.96875 328.84375 91.957031 327.488281 89.972656 326.09375 C 87.992188 324.695312 86.039062 323.257812 84.121094 321.777344 C 82.199219 320.296875 80.3125 318.777344 78.457031 317.214844 C 76.601562 315.65625 74.78125 314.054688 72.992188 312.417969 C 71.207031 310.777344 69.457031 309.101562 67.742188 307.386719 C 66.027344 305.671875 64.347656 303.921875 62.707031 302.136719 C 61.066406 300.351562 59.46875 298.53125 57.90625 296.675781 C 56.34375 294.824219 54.820312 292.9375 53.339844 291.015625 C 51.859375 289.097656 50.417969 287.144531 49.019531 285.164062 C 47.621094 283.183594 46.265625 281.171875 44.957031 279.132812 C 43.644531 277.09375 42.375 275.027344 41.152344 272.933594 C 39.929688 270.839844 38.75 268.722656 37.617188 266.578125 C 36.484375 264.433594 35.398438 262.265625 34.359375 260.078125 C 33.320312 257.886719 32.328125 255.675781 31.382812 253.441406 C 30.308594 250.882812 29.296875 248.296875 28.347656 245.6875 C 27.402344 243.078125 26.515625 240.449219 25.699219 237.792969 C 24.878906 235.140625 24.125 232.472656 23.4375 229.78125 C 22.75 227.089844 22.128906 224.386719 21.570312 221.667969 C 21.015625 218.945312 20.527344 216.214844 20.105469 213.46875 C 19.683594 210.726562 19.332031 207.972656 19.042969 205.210938 C 18.757812 202.449219 18.539062 199.683594 18.386719 196.910156 C 18.238281 194.140625 18.152344 191.367188 18.136719 188.589844 C 18.125 185.8125 18.175781 183.039062 18.296875 180.265625 C 18.417969 177.492188 18.605469 174.722656 18.863281 171.957031 C 19.121094 169.195312 19.445312 166.4375 19.835938 163.6875 C 20.226562 160.941406 20.6875 158.203125 21.214844 155.476562 C 21.738281 152.75 22.332031 150.039062 22.992188 147.34375 C 23.648438 144.644531 24.375 141.964844 25.164062 139.304688 C 25.953125 136.644531 26.808594 134.003906 27.730469 131.382812 C 28.648438 128.765625 29.632812 126.167969 30.679688 123.597656 C 31.726562 121.027344 32.835938 118.484375 34.007812 115.964844 C 35.179688 113.449219 36.410156 110.960938 37.703125 108.507812 C 38.996094 106.050781 40.351562 103.625 41.761719 101.238281 C 43.175781 98.847656 44.644531 96.492188 46.171875 94.175781 C 47.699219 91.855469 49.28125 89.578125 50.921875 87.335938 C 52.5625 85.097656 54.253906 82.898438 56 80.742188 C 57.75 78.582031 59.546875 76.46875 61.398438 74.402344 C 63.25 72.332031 65.148438 70.308594 67.097656 68.335938 C 69.050781 66.359375 71.046875 64.429688 73.089844 62.554688 C 75.132812 60.675781 77.222656 58.847656 79.355469 57.074219 C 81.492188 55.296875 83.667969 53.574219 85.886719 51.90625 C 88.101562 50.238281 90.359375 48.625 92.660156 47.066406 C 94.957031 45.507812 97.289062 44.007812 99.660156 42.566406 C 102.03125 41.121094 104.4375 39.738281 106.875 38.410156 C 109.3125 37.085938 111.785156 35.820312 114.285156 34.617188 C 116.785156 33.410156 119.3125 32.269531 121.871094 31.1875 C 124.425781 30.109375 127.007812 29.089844 129.617188 28.136719 C 132.222656 27.183594 134.851562 26.292969 137.5 25.46875 C 140.152344 24.644531 142.820312 23.882812 145.507812 23.191406 C 148.195312 22.496094 150.898438 21.867188 153.613281 21.308594 C 156.332031 20.746094 159.0625 20.25 161.804688 19.824219 C 164.546875 19.394531 167.300781 19.035156 170.058594 18.742188 C 172.820312 18.449219 175.585938 18.226562 178.355469 18.066406 C 181.128906 17.910156 183.902344 17.820312 186.675781 17.800781 C 189.453125 17.78125 192.226562 17.828125 195 17.941406 C 197.773438 18.058594 200.542969 18.238281 203.304688 18.492188 C 206.070312 18.742188 208.824219 19.058594 211.574219 19.445312 C 214.324219 19.832031 217.0625 20.285156 219.785156 20.804688 C 222.511719 21.324219 225.226562 21.914062 227.921875 22.566406 C 230.621094 23.21875 233.300781 23.9375 235.964844 24.722656 C 238.625 25.507812 241.265625 26.355469 243.886719 27.269531 C 246.507812 28.183594 249.105469 29.164062 251.679688 30.203125 C 254.25 31.246094 256.796875 32.351562 259.316406 33.515625 C 261.832031 34.683594 264.324219 35.910156 266.78125 37.199219 C 269.238281 38.488281 271.664062 39.835938 274.058594 41.242188 C 276.449219 42.648438 278.804688 44.113281 281.128906 45.636719 C 283.449219 47.160156 285.730469 48.738281 287.972656 50.375 C 290.214844 52.011719 292.417969 53.699219 294.578125 55.441406 C 296.738281 57.183594 298.855469 58.980469 300.929688 60.824219 C 303 62.671875 305.027344 64.570312 307.007812 66.515625 C 308.984375 68.460938 310.917969 70.453125 312.796875 72.496094 C 314.679688 74.535156 316.511719 76.621094 318.289062 78.753906 C 320.070312 80.882812 321.796875 83.054688 323.46875 85.269531 C 325.140625 87.484375 326.761719 89.742188 328.324219 92.035156 C 329.886719 94.328125 331.390625 96.660156 332.839844 99.03125 C 334.285156 101.398438 335.675781 103.800781 337.007812 106.238281 C 338.335938 108.671875 339.605469 111.140625 340.816406 113.640625 C 342.027344 116.136719 343.175781 118.664062 344.261719 121.21875 C 348.683594 131.679688 352.015625 142.472656 354.261719 153.601562 C 356.507812 164.734375 357.621094 175.976562 357.601562 187.332031 Z M 42.179688 187.332031 C 42.183594 189.714844 42.242188 192.09375 42.359375 194.476562 C 42.476562 196.855469 42.652344 199.230469 42.886719 201.601562 C 43.121094 203.972656 43.414062 206.339844 43.761719 208.695312 C 44.113281 211.050781 44.523438 213.398438 44.988281 215.738281 C 45.453125 218.074219 45.976562 220.398438 46.554688 222.710938 C 47.132812 225.019531 47.769531 227.316406 48.460938 229.597656 C 49.15625 231.878906 49.902344 234.140625 50.707031 236.382812 C 51.507812 238.625 52.367188 240.847656 53.277344 243.050781 C 54.191406 245.25 55.15625 247.429688 56.175781 249.582031 C 57.195312 251.738281 58.265625 253.863281 59.390625 255.964844 C 60.515625 258.066406 61.6875 260.140625 62.914062 262.183594 C 64.140625 264.226562 65.414062 266.238281 66.738281 268.21875 C 68.0625 270.199219 69.433594 272.148438 70.851562 274.0625 C 72.273438 275.976562 73.738281 277.855469 75.25 279.695312 C 76.761719 281.535156 78.320312 283.339844 79.917969 285.105469 C 81.519531 286.871094 83.160156 288.597656 84.847656 290.28125 C 86.53125 291.964844 88.257812 293.609375 90.023438 295.207031 C 91.789062 296.808594 93.589844 298.363281 95.433594 299.875 C 97.277344 301.386719 99.152344 302.851562 101.066406 304.269531 C 102.980469 305.691406 104.929688 307.0625 106.910156 308.382812 C 108.890625 309.707031 110.902344 310.980469 112.945312 312.207031 C 114.992188 313.433594 117.0625 314.605469 119.164062 315.730469 C 121.265625 316.851562 123.394531 317.921875 125.546875 318.941406 C 127.699219 319.960938 129.878906 320.925781 132.078125 321.835938 C 134.28125 322.746094 136.503906 323.605469 138.746094 324.40625 C 140.988281 325.210938 143.25 325.957031 145.53125 326.648438 C 147.8125 327.339844 150.105469 327.972656 152.417969 328.554688 C 154.730469 329.132812 157.050781 329.652344 159.390625 330.117188 C 161.726562 330.582031 164.074219 330.988281 166.429688 331.339844 C 168.785156 331.6875 171.148438 331.980469 173.519531 332.210938 C 175.890625 332.445312 178.265625 332.621094 180.644531 332.738281 C 183.027344 332.855469 185.40625 332.914062 187.789062 332.910156 C 190.171875 332.910156 192.550781 332.851562 194.933594 332.734375 C 197.3125 332.617188 199.6875 332.441406 202.058594 332.210938 C 204.429688 331.976562 206.792969 331.683594 209.148438 331.332031 C 211.503906 330.984375 213.851562 330.578125 216.1875 330.113281 C 218.523438 329.644531 220.847656 329.125 223.160156 328.546875 C 225.46875 327.964844 227.765625 327.332031 230.046875 326.636719 C 232.324219 325.945312 234.585938 325.199219 236.828125 324.394531 C 239.074219 323.59375 241.296875 322.734375 243.496094 321.824219 C 245.695312 320.910156 247.875 319.945312 250.027344 318.925781 C 252.179688 317.90625 254.308594 316.835938 256.410156 315.714844 C 258.511719 314.589844 260.582031 313.414062 262.625 312.191406 C 264.667969 310.964844 266.683594 309.691406 268.664062 308.367188 C 270.644531 307.042969 272.589844 305.671875 274.503906 304.25 C 276.417969 302.832031 278.296875 301.367188 280.136719 299.855469 C 281.980469 298.34375 283.78125 296.785156 285.546875 295.1875 C 287.3125 293.585938 289.039062 291.941406 290.722656 290.257812 C 292.40625 288.574219 294.050781 286.847656 295.648438 285.082031 C 297.25 283.316406 298.804688 281.511719 300.316406 279.671875 C 301.828125 277.828125 303.292969 275.949219 304.710938 274.035156 C 306.132812 272.121094 307.503906 270.175781 308.824219 268.191406 C 310.148438 266.210938 311.425781 264.199219 312.648438 262.15625 C 313.875 260.109375 315.046875 258.039062 316.171875 255.9375 C 317.292969 253.835938 318.363281 251.707031 319.382812 249.554688 C 320.402344 247.398438 321.367188 245.222656 322.28125 243.019531 C 323.191406 240.816406 324.046875 238.59375 324.851562 236.351562 C 325.652344 234.109375 326.402344 231.847656 327.09375 229.566406 C 327.785156 227.285156 328.421875 224.988281 329 222.679688 C 329.578125 220.367188 330.101562 218.042969 330.566406 215.707031 C 331.03125 213.367188 331.4375 211.019531 331.789062 208.664062 C 332.136719 206.304688 332.429688 203.941406 332.664062 201.570312 C 332.894531 199.199219 333.070312 196.824219 333.1875 194.441406 C 333.304688 192.0625 333.363281 189.679688 333.363281 187.296875 C 333.363281 184.914062 333.308594 182.535156 333.191406 180.152344 C 333.074219 177.773438 332.898438 175.398438 332.664062 173.027344 C 332.433594 170.65625 332.140625 168.289062 331.792969 165.933594 C 331.441406 163.574219 331.035156 161.226562 330.570312 158.890625 C 330.105469 156.554688 329.585938 154.230469 329.007812 151.917969 C 328.429688 149.605469 327.792969 147.308594 327.101562 145.03125 C 326.410156 142.75 325.664062 140.488281 324.863281 138.242188 C 324.058594 136 323.203125 133.777344 322.292969 131.574219 C 321.378906 129.371094 320.414062 127.195312 319.398438 125.039062 C 318.378906 122.886719 317.308594 120.757812 316.1875 118.65625 C 315.0625 116.554688 313.890625 114.480469 312.664062 112.4375 C 311.441406 110.394531 310.167969 108.378906 308.84375 106.398438 C 307.519531 104.417969 306.148438 102.46875 304.730469 100.554688 C 303.3125 98.640625 301.847656 96.761719 300.335938 94.917969 C 298.824219 93.078125 297.269531 91.273438 295.671875 89.507812 C 294.070312 87.742188 292.429688 86.015625 290.746094 84.328125 C 289.058594 82.644531 287.335938 81 285.570312 79.398438 C 283.804688 77.800781 282.003906 76.242188 280.160156 74.730469 C 278.320312 73.21875 276.445312 71.753906 274.53125 70.332031 C 272.617188 68.914062 270.671875 67.539062 268.691406 66.214844 C 266.710938 64.890625 264.695312 63.617188 262.652344 62.390625 C 260.609375 61.164062 258.539062 59.992188 256.4375 58.867188 C 254.335938 57.742188 252.210938 56.671875 250.058594 55.652344 C 247.902344 54.632812 245.726562 53.664062 243.527344 52.753906 C 241.324219 51.839844 239.101562 50.984375 236.859375 50.179688 C 234.617188 49.375 232.355469 48.628906 230.078125 47.9375 C 227.796875 47.242188 225.5 46.605469 223.191406 46.027344 C 220.878906 45.449219 218.554688 44.925781 216.21875 44.460938 C 213.882812 43.992188 211.535156 43.585938 209.179688 43.234375 C 206.824219 42.886719 204.460938 42.59375 202.089844 42.359375 C 199.71875 42.125 197.34375 41.949219 194.964844 41.832031 C 192.585938 41.710938 190.203125 41.652344 187.820312 41.652344 C 185.4375 41.65625 183.058594 41.714844 180.675781 41.835938 C 178.296875 41.953125 175.921875 42.128906 173.550781 42.367188 C 171.179688 42.601562 168.816406 42.894531 166.457031 43.246094 C 164.101562 43.597656 161.753906 44.007812 159.417969 44.472656 C 157.082031 44.941406 154.757812 45.464844 152.445312 46.042969 C 150.132812 46.625 147.839844 47.261719 145.558594 47.953125 C 143.277344 48.648438 141.015625 49.394531 138.773438 50.199219 C 136.53125 51.003906 134.308594 51.863281 132.105469 52.777344 C 129.90625 53.6875 127.730469 54.65625 125.574219 55.675781 C 123.421875 56.695312 121.292969 57.769531 119.191406 58.890625 C 117.089844 60.015625 115.019531 61.191406 112.976562 62.417969 C 110.929688 63.644531 108.917969 64.917969 106.9375 66.242188 C 104.957031 67.566406 103.011719 68.941406 101.097656 70.359375 C 99.183594 71.78125 97.304688 73.246094 95.460938 74.757812 C 93.621094 76.273438 91.816406 77.828125 90.050781 79.429688 C 88.285156 81.03125 86.5625 82.671875 84.875 84.359375 C 83.191406 86.042969 81.546875 87.769531 79.949219 89.535156 C 78.347656 91.300781 76.792969 93.105469 75.277344 94.949219 C 73.765625 96.789062 72.300781 98.667969 70.882812 100.582031 C 69.460938 102.496094 68.089844 104.445312 66.765625 106.425781 C 65.441406 108.410156 64.164062 110.421875 62.941406 112.464844 C 61.714844 114.507812 60.539062 116.582031 59.414062 118.683594 C 58.292969 120.785156 57.21875 122.914062 56.199219 125.066406 C 55.179688 127.222656 54.214844 129.398438 53.300781 131.601562 C 52.390625 133.804688 51.53125 136.027344 50.726562 138.269531 C 49.921875 140.515625 49.175781 142.777344 48.480469 145.058594 C 47.789062 147.335938 47.152344 149.632812 46.570312 151.945312 C 45.992188 154.257812 45.46875 156.582031 45 158.917969 C 44.535156 161.257812 44.125 163.605469 43.773438 165.960938 C 43.421875 168.320312 43.128906 170.683594 42.894531 173.054688 C 42.660156 175.425781 42.480469 177.804688 42.363281 180.183594 C 42.242188 182.566406 42.183594 184.945312 42.179688 187.332031 Z M 42.179688 187.332031 " fill-opacity="1" fill-rule="nonzero"/></g><path fill="#000000" d="M 104.652344 197.277344 L 176.941406 274.414062 C 177.597656 275.113281 178.3125 275.738281 179.089844 276.292969 C 179.867188 276.847656 180.6875 277.324219 181.558594 277.71875 C 182.429688 278.109375 183.332031 278.414062 184.261719 278.632812 C 185.191406 278.847656 186.132812 278.96875 187.085938 279 C 188.042969 279.03125 188.992188 278.96875 189.933594 278.8125 C 190.875 278.65625 191.792969 278.410156 192.6875 278.070312 C 193.582031 277.734375 194.433594 277.3125 195.242188 276.808594 C 196.054688 276.304688 196.808594 275.722656 197.503906 275.070312 C 198.199219 274.417969 198.828125 273.703125 199.382812 272.925781 C 199.9375 272.148438 200.414062 271.324219 200.808594 270.453125 C 201.199219 269.582031 201.507812 268.683594 201.722656 267.753906 C 201.9375 266.820312 202.0625 265.878906 202.09375 264.925781 C 202.125 263.96875 202.0625 263.019531 201.90625 262.078125 C 201.75 261.136719 201.503906 260.21875 201.167969 259.324219 C 200.832031 258.429688 200.410156 257.578125 199.90625 256.765625 C 199.402344 255.953125 198.820312 255.199219 198.167969 254.503906 L 149.761719 202.863281 L 260.417969 202.863281 C 268.460938 202.863281 274.898438 195.910156 274.898438 187.332031 C 274.898438 178.75 268.460938 171.796875 260.417969 171.796875 L 149.761719 171.796875 L 198.167969 120.15625 C 198.824219 119.460938 199.402344 118.707031 199.910156 117.894531 C 200.414062 117.085938 200.835938 116.230469 201.175781 115.335938 C 201.511719 114.441406 201.757812 113.523438 201.914062 112.582031 C 202.074219 111.636719 202.136719 110.6875 202.105469 109.734375 C 202.074219 108.777344 201.953125 107.832031 201.734375 106.902344 C 201.519531 105.972656 201.214844 105.070312 200.820312 104.199219 C 200.425781 103.328125 199.953125 102.503906 199.394531 101.726562 C 198.839844 100.949219 198.214844 100.234375 197.515625 99.578125 C 196.820312 98.925781 196.066406 98.34375 195.253906 97.839844 C 194.441406 97.335938 193.589844 96.914062 192.695312 96.574219 C 191.800781 96.238281 190.882812 95.992188 189.9375 95.835938 C 188.996094 95.679688 188.046875 95.617188 187.089844 95.648438 C 186.136719 95.679688 185.191406 95.804688 184.261719 96.019531 C 183.332031 96.238281 182.429688 96.542969 181.558594 96.9375 C 180.6875 97.332031 179.863281 97.808594 179.089844 98.363281 C 178.3125 98.921875 177.597656 99.546875 176.941406 100.246094 L 104.652344 177.382812 C 104.023438 178.050781 103.464844 178.769531 102.972656 179.542969 C 102.476562 180.3125 102.0625 181.125 101.722656 181.976562 C 101.386719 182.828125 101.128906 183.707031 100.957031 184.605469 C 100.785156 185.503906 100.699219 186.414062 100.699219 187.332031 C 100.699219 188.246094 100.785156 189.15625 100.957031 190.054688 C 101.128906 190.957031 101.386719 191.832031 101.722656 192.683594 C 102.0625 193.535156 102.476562 194.347656 102.972656 195.121094 C 103.464844 195.894531 104.023438 196.613281 104.652344 197.277344 Z M 104.652344 197.277344 " fill-opacity="1" fill-rule="nonzero"/></svg>