<svg width="144" height="146" viewBox="0 0 144 146" fill="none" xmlns="http://www.w3.org/2000/svg">
<path d="M142 73.2856C142 112.404 110.659 144.113 72 144.113C33.3388 144.113 2 112.404 2 73.2856C2 34.1699 33.3388 2.46045 72 2.46045C110.659 2.46045 142 34.1699 142 73.2856Z" stroke="white" stroke-width="3" stroke-miterlimit="10"/>
<path d="M100.511 99.5936H45.487C42.4571 99.5936 40 97.147 40 94.1301V52.4432C40 49.4263 42.4571 46.9797 45.487 46.9797H100.511C103.543 46.9797 106 49.4263 106 52.4432V94.1301C106 97.147 103.543 99.5936 100.511 99.5936Z" stroke="white" stroke-width="3" stroke-linecap="round" stroke-linejoin="round"/>
<path d="M43 50.0151L73.5011 77.3339L104 50.0151" stroke="white" stroke-width="3" stroke-linecap="round" stroke-linejoin="round"/>
</svg>
