<svg xmlns="http://www.w3.org/2000/svg" xmlns:xlink="http://www.w3.org/1999/xlink" width="500" zoomAndPan="magnify" viewBox="0 0 375 374.999991" height="500" preserveAspectRatio="xMidYMid meet" version="1.0"><path fill="#6633ff" d="M 375 187.5 C 375 190.566406 374.925781 193.632812 374.773438 196.699219 C 374.625 199.765625 374.398438 202.824219 374.097656 205.878906 C 373.796875 208.929688 373.421875 211.976562 372.96875 215.011719 C 372.519531 218.046875 371.996094 221.070312 371.398438 224.078125 C 370.796875 227.089844 370.125 230.082031 369.378906 233.058594 C 368.636719 236.035156 367.816406 238.992188 366.925781 241.925781 C 366.035156 244.863281 365.074219 247.777344 364.039062 250.667969 C 363.003906 253.554688 361.902344 256.417969 360.726562 259.253906 C 359.554688 262.085938 358.308594 264.890625 356.996094 267.664062 C 355.6875 270.441406 354.308594 273.179688 352.859375 275.886719 C 351.414062 278.59375 349.902344 281.261719 348.324219 283.894531 C 346.746094 286.527344 345.105469 289.117188 343.398438 291.667969 C 341.695312 294.21875 339.929688 296.726562 338.101562 299.191406 C 336.273438 301.65625 334.386719 304.078125 332.4375 306.449219 C 330.492188 308.820312 328.488281 311.144531 326.429688 313.417969 C 324.367188 315.691406 322.253906 317.914062 320.082031 320.082031 C 317.914062 322.253906 315.691406 324.367188 313.417969 326.429688 C 311.144531 328.488281 308.820312 330.492188 306.449219 332.4375 C 304.078125 334.386719 301.65625 336.273438 299.191406 338.101562 C 296.726562 339.929688 294.21875 341.695312 291.667969 343.398438 C 289.117188 345.105469 286.527344 346.746094 283.894531 348.324219 C 281.261719 349.902344 278.59375 351.414062 275.886719 352.859375 C 273.179688 354.308594 270.441406 355.6875 267.664062 356.996094 C 264.890625 358.308594 262.085938 359.554688 259.253906 360.726562 C 256.417969 361.902344 253.554688 363.003906 250.667969 364.039062 C 247.777344 365.074219 244.863281 366.035156 241.925781 366.925781 C 238.992188 367.816406 236.035156 368.636719 233.058594 369.378906 C 230.082031 370.125 227.089844 370.796875 224.078125 371.398438 C 221.070312 371.996094 218.046875 372.519531 215.011719 372.96875 C 211.976562 373.421875 208.929688 373.796875 205.878906 374.097656 C 202.824219 374.398438 199.765625 374.625 196.699219 374.773438 C 193.632812 374.925781 190.566406 375 187.5 375 C 184.429688 375 181.363281 374.925781 178.296875 374.773438 C 175.234375 374.625 172.175781 374.398438 169.121094 374.097656 C 166.066406 373.796875 163.023438 373.421875 159.988281 372.96875 C 156.953125 372.519531 153.929688 371.996094 150.917969 371.398438 C 147.910156 370.796875 144.917969 370.125 141.941406 369.378906 C 138.964844 368.636719 136.007812 367.816406 133.070312 366.925781 C 130.132812 366.035156 127.222656 365.074219 124.332031 364.039062 C 121.441406 363.003906 118.582031 361.902344 115.746094 360.726562 C 112.910156 359.554688 110.105469 358.308594 107.332031 356.996094 C 104.558594 355.6875 101.816406 354.308594 99.113281 352.859375 C 96.40625 351.414062 93.734375 349.902344 91.105469 348.324219 C 88.472656 346.746094 85.878906 345.105469 83.328125 343.398438 C 80.777344 341.695312 78.269531 339.929688 75.804688 338.101562 C 73.339844 336.273438 70.921875 334.386719 68.550781 332.4375 C 66.175781 330.492188 63.855469 328.488281 61.582031 326.429688 C 59.308594 324.367188 57.085938 322.253906 54.914062 320.082031 C 52.746094 317.914062 50.628906 315.691406 48.570312 313.417969 C 46.507812 311.144531 44.503906 308.820312 42.558594 306.449219 C 40.613281 304.078125 38.726562 301.65625 36.898438 299.191406 C 35.070312 296.726562 33.300781 294.21875 31.597656 291.667969 C 29.894531 289.117188 28.25 286.527344 26.675781 283.894531 C 25.097656 281.261719 23.585938 278.59375 22.136719 275.886719 C 20.691406 273.179688 19.3125 270.441406 18 267.664062 C 16.6875 264.890625 15.445312 262.085938 14.269531 259.253906 C 13.097656 256.417969 11.992188 253.554688 10.957031 250.667969 C 9.925781 247.777344 8.960938 244.863281 8.070312 241.925781 C 7.179688 238.992188 6.363281 236.035156 5.617188 233.058594 C 4.871094 230.082031 4.199219 227.089844 3.601562 224.078125 C 3.003906 221.070312 2.476562 218.046875 2.027344 215.011719 C 1.578125 211.976562 1.203125 208.929688 0.902344 205.878906 C 0.601562 202.824219 0.375 199.765625 0.222656 196.699219 C 0.0742188 193.632812 -0.00390625 190.566406 -0.00390625 187.5 C -0.00390625 184.429688 0.0742188 181.363281 0.222656 178.296875 C 0.375 175.234375 0.601562 172.175781 0.902344 169.121094 C 1.203125 166.066406 1.578125 163.023438 2.027344 159.988281 C 2.476562 156.953125 3.003906 153.929688 3.601562 150.917969 C 4.199219 147.910156 4.871094 144.917969 5.617188 141.941406 C 6.363281 138.964844 7.179688 136.007812 8.070312 133.070312 C 8.960938 130.132812 9.925781 127.222656 10.957031 124.332031 C 11.992188 121.441406 13.097656 118.582031 14.269531 115.746094 C 15.445312 112.910156 16.6875 110.105469 18 107.332031 C 19.3125 104.558594 20.691406 101.816406 22.136719 99.113281 C 23.585938 96.40625 25.097656 93.734375 26.675781 91.105469 C 28.25 88.472656 29.894531 85.878906 31.597656 83.328125 C 33.300781 80.777344 35.070312 78.269531 36.898438 75.804688 C 38.726562 73.339844 40.613281 70.921875 42.558594 68.550781 C 44.503906 66.175781 46.507812 63.855469 48.570312 61.582031 C 50.628906 59.308594 52.746094 57.085938 54.914062 54.914062 C 57.085938 52.746094 59.308594 50.628906 61.582031 48.570312 C 63.855469 46.507812 66.175781 44.503906 68.550781 42.558594 C 70.921875 40.613281 73.339844 38.726562 75.804688 36.898438 C 78.269531 35.070312 80.777344 33.300781 83.328125 31.597656 C 85.878906 29.894531 88.472656 28.25 91.105469 26.675781 C 93.734375 25.097656 96.40625 23.585938 99.113281 22.136719 C 101.816406 20.691406 104.558594 19.3125 107.332031 18 C 110.105469 16.6875 112.910156 15.445312 115.746094 14.269531 C 118.582031 13.097656 121.441406 11.992188 124.332031 10.957031 C 127.222656 9.925781 130.132812 8.960938 133.070312 8.070312 C 136.007812 7.179688 138.964844 6.363281 141.941406 5.617188 C 144.917969 4.871094 147.910156 4.199219 150.917969 3.601562 C 153.929688 3.003906 156.953125 2.476562 159.988281 2.027344 C 163.023438 1.578125 166.066406 1.203125 169.121094 0.902344 C 172.175781 0.601562 175.234375 0.375 178.296875 0.222656 C 181.363281 0.0742188 184.429688 -0.00390625 187.5 -0.00390625 C 190.566406 -0.00390625 193.632812 0.0742188 196.699219 0.222656 C 199.765625 0.375 202.824219 0.601562 205.878906 0.902344 C 208.929688 1.203125 211.976562 1.578125 215.011719 2.027344 C 218.046875 2.476562 221.070312 3.003906 224.078125 3.601562 C 227.089844 4.199219 230.082031 4.871094 233.058594 5.617188 C 236.035156 6.363281 238.992188 7.179688 241.925781 8.070312 C 244.863281 8.960938 247.777344 9.925781 250.667969 10.957031 C 253.554688 11.992188 256.417969 13.097656 259.253906 14.269531 C 262.085938 15.445312 264.890625 16.6875 267.664062 18 C 270.441406 19.3125 273.179688 20.691406 275.886719 22.136719 C 278.59375 23.585938 281.261719 25.097656 283.894531 26.675781 C 286.527344 28.25 289.117188 29.894531 291.667969 31.597656 C 294.21875 33.300781 296.726562 35.070312 299.191406 36.898438 C 301.65625 38.726562 304.078125 40.613281 306.449219 42.558594 C 308.820312 44.503906 311.144531 46.507812 313.417969 48.570312 C 315.691406 50.628906 317.914062 52.746094 320.082031 54.914062 C 322.253906 57.085938 324.367188 59.308594 326.429688 61.582031 C 328.488281 63.855469 330.492188 66.175781 332.4375 68.550781 C 334.386719 70.921875 336.273438 73.339844 338.101562 75.804688 C 339.929688 78.269531 341.695312 80.777344 343.398438 83.328125 C 345.105469 85.878906 346.746094 88.472656 348.324219 91.105469 C 349.902344 93.734375 351.414062 96.40625 352.859375 99.113281 C 354.308594 101.816406 355.6875 104.558594 356.996094 107.332031 C 358.308594 110.105469 359.554688 112.910156 360.726562 115.746094 C 361.902344 118.582031 363.003906 121.441406 364.039062 124.332031 C 365.074219 127.222656 366.035156 130.132812 366.925781 133.070312 C 367.816406 136.007812 368.636719 138.964844 369.378906 141.941406 C 370.125 144.917969 370.796875 147.910156 371.398438 150.917969 C 371.996094 153.929688 372.519531 156.953125 372.96875 159.988281 C 373.421875 163.023438 373.796875 166.066406 374.097656 169.121094 C 374.398438 172.175781 374.625 175.234375 374.773438 178.296875 C 374.925781 181.363281 375 184.429688 375 187.5 Z M 375 187.5 " fill-opacity="1" fill-rule="nonzero"/><path fill="#ffffff" d="M 131.4375 80.835938 C 129.59375 80.835938 127.96875 81.21875 126.59375 82.015625 C 119.46875 86.132812 118.34375 101.640625 123.59375 123.515625 C 129.265625 147.148438 141.476562 175.921875 158 204.53125 C 174.523438 233.148438 193.328125 258.117188 210.960938 274.84375 C 227.28125 290.316406 241.273438 297.109375 248.398438 292.988281 C 255.523438 288.878906 256.640625 273.363281 251.398438 251.492188 C 245.734375 227.859375 233.515625 199.089844 216.992188 170.476562 C 200.476562 141.859375 181.664062 116.890625 164.03125 100.167969 C 150.859375 87.664062 139.195312 80.835938 131.4375 80.835938 Z M 243.476562 300.0625 C 234.007812 300.0625 221.578125 292.960938 206.9375 279.078125 C 188.914062 261.976562 169.734375 236.546875 152.9375 207.453125 C 136.148438 178.359375 123.703125 149.039062 117.90625 124.875 C 111.765625 99.242188 113.75 82.671875 123.664062 76.953125 L 125.125 79.476562 L 123.664062 76.953125 C 133.578125 71.226562 148.929688 77.789062 168.046875 95.921875 C 186.078125 113.015625 205.25 138.453125 222.046875 167.546875 C 238.84375 196.640625 251.28125 225.96875 257.078125 250.125 C 263.226562 275.75 261.234375 292.320312 251.320312 298.046875 C 249 299.398438 246.375 300.0625 243.476562 300.0625 Z M 243.476562 300.0625 " fill-opacity="1" fill-rule="evenodd"/><path fill="#ffffff" d="M 187.5 153.445312 C 154.460938 153.445312 123.429688 157.25 100.132812 164.15625 C 78.570312 170.546875 65.695312 179.273438 65.695312 187.5 C 65.695312 195.726562 78.570312 204.453125 100.132812 210.84375 C 123.429688 217.75 154.460938 221.554688 187.5 221.554688 C 220.546875 221.554688 251.570312 217.75 274.867188 210.84375 C 296.4375 204.445312 309.3125 195.726562 309.3125 187.5 C 309.3125 179.273438 296.4375 170.546875 274.867188 164.15625 C 251.570312 157.25 220.539062 153.445312 187.5 153.445312 Z M 187.5 227.398438 C 153.914062 227.398438 122.296875 223.507812 98.46875 216.453125 C 73.203125 208.960938 59.84375 198.953125 59.84375 187.5 C 59.84375 176.046875 73.203125 166.039062 98.46875 158.546875 C 122.289062 151.484375 153.90625 147.59375 187.492188 147.59375 C 221.085938 147.59375 252.703125 151.484375 276.523438 158.546875 C 301.789062 166.039062 315.148438 176.046875 315.148438 187.5 C 315.148438 198.953125 301.789062 208.960938 276.523438 216.453125 C 252.710938 223.515625 221.085938 227.398438 187.5 227.398438 Z M 187.5 227.398438 " fill-opacity="1" fill-rule="evenodd"/><path fill="#ffffff" d="M 126.601562 292.984375 C 133.71875 297.101562 147.71875 290.3125 164.039062 274.835938 C 181.671875 258.117188 200.476562 233.140625 217 204.523438 C 233.523438 175.914062 245.742188 147.132812 251.40625 123.507812 C 256.648438 101.632812 255.53125 86.125 248.40625 82.007812 C 241.289062 77.898438 227.289062 84.679688 210.96875 100.164062 C 193.335938 116.882812 174.53125 141.859375 158.007812 170.46875 C 141.484375 199.085938 129.265625 227.863281 123.601562 251.484375 C 118.351562 273.359375 119.46875 288.875 126.601562 292.984375 Z M 131.523438 300.0625 C 128.617188 300.0625 125.992188 299.398438 123.671875 298.054688 C 113.757812 292.328125 111.765625 275.757812 117.914062 250.132812 C 123.703125 225.96875 136.148438 196.640625 152.945312 167.554688 C 169.742188 138.460938 188.914062 113.03125 206.945312 95.929688 C 226.070312 77.789062 241.421875 71.234375 251.328125 76.960938 C 261.25 82.679688 263.234375 99.257812 257.085938 124.882812 C 251.289062 149.046875 238.851562 178.367188 222.054688 207.460938 C 205.257812 236.554688 186.085938 261.984375 168.054688 279.085938 C 153.421875 292.960938 140.992188 300.0625 131.523438 300.0625 Z M 131.523438 300.0625 " fill-opacity="1" fill-rule="evenodd"/><path fill="#ffffff" d="M 187.5 177.257812 C 181.851562 177.257812 177.257812 181.851562 177.257812 187.5 C 177.257812 193.140625 181.851562 197.734375 187.492188 197.734375 C 193.140625 197.734375 197.734375 193.140625 197.734375 187.5 C 197.742188 181.851562 193.148438 177.257812 187.5 177.257812 Z M 187.5 203.585938 C 178.632812 203.585938 171.414062 196.367188 171.414062 187.5 C 171.414062 178.625 178.632812 171.414062 187.5 171.414062 C 196.375 171.414062 203.585938 178.632812 203.585938 187.5 C 203.585938 196.367188 196.367188 203.585938 187.5 203.585938 Z M 187.5 203.585938 " fill-opacity="1" fill-rule="evenodd"/></svg>