<svg xmlns="http://www.w3.org/2000/svg" xmlns:xlink="http://www.w3.org/1999/xlink" width="500" zoomAndPan="magnify" viewBox="0 0 375 374.999991" height="500" preserveAspectRatio="xMidYMid meet" version="1.0"><defs><clipPath id="2aec900f37"><path d="M 17.394531 18.011719 L 357 18.011719 L 357 357.011719 L 17.394531 357.011719 Z M 17.394531 18.011719 " clip-rule="nonzero"/></clipPath></defs><rect x="-37.5" width="450" fill="#ffffff" y="-37.499999" height="449.999989" fill-opacity="1"/><rect x="-37.5" width="450" fill="#ffffff" y="-37.499999" height="449.999989" fill-opacity="1"/><g clip-path="url(#2aec900f37)"><path fill="#000000" d="M 17.394531 187.667969 C 17.394531 185.242188 17.449219 182.816406 17.554688 180.394531 C 17.660156 177.972656 17.816406 175.554688 18.027344 173.136719 C 18.234375 170.722656 18.496094 168.308594 18.808594 165.90625 C 19.121094 163.5 19.484375 161.105469 19.898438 158.714844 C 20.3125 156.324219 20.777344 153.945312 21.296875 151.578125 C 21.8125 149.207031 22.378906 146.851562 22.996094 144.503906 C 23.613281 142.160156 24.28125 139.832031 25 137.515625 C 25.71875 135.199219 26.484375 132.898438 27.300781 130.613281 C 28.117188 128.332031 28.980469 126.066406 29.890625 123.820312 C 30.804688 121.574219 31.765625 119.347656 32.773438 117.140625 C 33.78125 114.9375 34.835938 112.753906 35.9375 110.59375 C 37.039062 108.433594 38.1875 106.296875 39.378906 104.1875 C 40.574219 102.074219 41.8125 99.992188 43.09375 97.933594 C 44.375 95.875 45.703125 93.84375 47.070312 91.84375 C 48.441406 89.84375 49.851562 87.871094 51.304688 85.929688 C 52.757812 83.988281 54.253906 82.082031 55.789062 80.203125 C 57.324219 78.328125 58.898438 76.484375 60.511719 74.675781 C 62.125 72.867188 63.777344 71.09375 65.46875 69.355469 C 67.160156 67.617188 68.886719 65.914062 70.648438 64.25 C 72.410156 62.585938 74.210938 60.957031 76.042969 59.371094 C 77.875 57.785156 79.742188 56.234375 81.640625 54.726562 C 83.539062 53.222656 85.46875 51.753906 87.429688 50.328125 C 89.390625 48.90625 91.382812 47.523438 93.402344 46.183594 C 95.425781 44.84375 97.472656 43.546875 99.550781 42.296875 C 101.625 41.042969 103.726562 39.835938 105.855469 38.675781 C 107.984375 37.511719 110.136719 36.398438 112.3125 35.328125 C 114.488281 34.257812 116.683594 33.234375 118.90625 32.261719 C 121.125 31.285156 123.363281 30.355469 125.621094 29.476562 C 127.882812 28.597656 130.160156 27.765625 132.453125 26.984375 C 134.75 26.203125 137.058594 25.472656 139.386719 24.789062 C 141.710938 24.105469 144.050781 23.472656 146.40625 22.890625 C 148.757812 22.304688 151.121094 21.773438 153.5 21.292969 C 155.875 20.8125 158.261719 20.378906 160.65625 20 C 163.050781 19.621094 165.449219 19.292969 167.859375 19.015625 C 170.269531 18.742188 172.679688 18.515625 175.097656 18.34375 C 177.515625 18.167969 179.9375 18.046875 182.363281 17.980469 C 184.785156 17.910156 187.207031 17.890625 189.632812 17.925781 C 192.058594 17.960938 194.480469 18.046875 196.898438 18.1875 C 199.320312 18.324219 201.734375 18.515625 204.148438 18.753906 C 206.5625 18.996094 208.964844 19.289062 211.367188 19.636719 C 213.765625 19.980469 216.15625 20.375 218.539062 20.824219 C 220.921875 21.269531 223.296875 21.769531 225.65625 22.316406 C 228.019531 22.867188 230.367188 23.464844 232.703125 24.113281 C 235.039062 24.765625 237.359375 25.464844 239.664062 26.210938 C 241.96875 26.960938 244.257812 27.757812 246.53125 28.605469 C 248.804688 29.453125 251.054688 30.347656 253.289062 31.289062 C 255.523438 32.234375 257.734375 33.226562 259.925781 34.261719 C 262.117188 35.300781 264.285156 36.386719 266.429688 37.515625 C 268.574219 38.648438 270.691406 39.824219 272.785156 41.046875 C 274.878906 42.269531 276.949219 43.535156 278.988281 44.84375 C 281.027344 46.15625 283.039062 47.507812 285.019531 48.90625 C 287.003906 50.300781 288.953125 51.738281 290.875 53.21875 C 292.792969 54.699219 294.683594 56.21875 296.539062 57.78125 C 298.394531 59.339844 300.214844 60.941406 302 62.582031 C 303.789062 64.21875 305.539062 65.894531 307.253906 67.609375 C 308.96875 69.324219 310.644531 71.074219 312.285156 72.859375 C 313.925781 74.644531 315.527344 76.464844 317.089844 78.320312 C 318.652344 80.175781 320.175781 82.0625 321.65625 83.980469 C 323.136719 85.898438 324.578125 87.851562 325.972656 89.832031 C 327.371094 91.8125 328.726562 93.824219 330.039062 95.863281 C 331.351562 97.902344 332.617188 99.96875 333.839844 102.0625 C 335.066406 104.15625 336.242188 106.273438 337.375 108.417969 C 338.507812 110.5625 339.59375 112.730469 340.632812 114.921875 C 341.675781 117.109375 342.667969 119.324219 343.613281 121.554688 C 344.6875 124.117188 345.699219 126.699219 346.644531 129.308594 C 347.59375 131.917969 348.476562 134.550781 349.296875 137.203125 C 350.117188 139.855469 350.867188 142.527344 351.558594 145.214844 C 352.246094 147.90625 352.867188 150.609375 353.421875 153.332031 C 353.976562 156.050781 354.464844 158.78125 354.886719 161.527344 C 355.308594 164.269531 355.664062 167.023438 355.949219 169.785156 C 356.238281 172.546875 356.457031 175.3125 356.605469 178.085938 C 356.757812 180.855469 356.839844 183.632812 356.855469 186.40625 C 356.871094 189.183594 356.816406 191.957031 356.695312 194.730469 C 356.578125 197.503906 356.386719 200.273438 356.128906 203.039062 C 355.875 205.804688 355.550781 208.558594 355.15625 211.308594 C 354.765625 214.058594 354.308594 216.792969 353.78125 219.519531 C 353.253906 222.246094 352.664062 224.957031 352.003906 227.65625 C 351.34375 230.351562 350.621094 233.03125 349.832031 235.691406 C 349.039062 238.351562 348.183594 240.992188 347.265625 243.613281 C 346.347656 246.230469 345.363281 248.828125 344.316406 251.398438 C 343.269531 253.96875 342.160156 256.515625 340.988281 259.03125 C 339.816406 261.546875 338.585938 264.035156 337.289062 266.492188 C 335.996094 268.945312 334.644531 271.371094 333.234375 273.761719 C 331.820312 276.152344 330.351562 278.503906 328.824219 280.824219 C 327.296875 283.140625 325.710938 285.417969 324.074219 287.660156 C 322.433594 289.898438 320.738281 292.097656 318.992188 294.257812 C 317.246094 296.414062 315.445312 298.527344 313.597656 300.59375 C 311.746094 302.664062 309.84375 304.6875 307.894531 306.664062 C 305.945312 308.636719 303.949219 310.566406 301.90625 312.445312 C 299.859375 314.320312 297.769531 316.148438 295.636719 317.921875 C 293.503906 319.699219 291.328125 321.421875 289.109375 323.089844 C 286.890625 324.757812 284.632812 326.371094 282.335938 327.929688 C 280.039062 329.488281 277.703125 330.988281 275.332031 332.433594 C 272.964844 333.875 270.558594 335.261719 268.121094 336.585938 C 265.679688 337.910156 263.210938 339.175781 260.710938 340.382812 C 258.210938 341.585938 255.679688 342.726562 253.125 343.808594 C 250.566406 344.890625 247.984375 345.90625 245.378906 346.859375 C 242.773438 347.8125 240.144531 348.703125 237.492188 349.527344 C 234.84375 350.351562 232.175781 351.113281 229.488281 351.804688 C 226.800781 352.5 224.097656 353.128906 221.378906 353.691406 C 218.660156 354.25 215.929688 354.746094 213.1875 355.171875 C 210.445312 355.601562 207.695312 355.960938 204.933594 356.253906 C 202.175781 356.546875 199.410156 356.773438 196.636719 356.929688 C 193.867188 357.085938 191.09375 357.175781 188.316406 357.195312 C 185.542969 357.214844 182.769531 357.167969 179.996094 357.054688 C 177.222656 356.941406 174.453125 356.757812 171.6875 356.507812 C 168.925781 356.253906 166.167969 355.9375 163.421875 355.550781 C 160.671875 355.164062 157.933594 354.710938 155.207031 354.191406 C 152.480469 353.671875 149.769531 353.085938 147.070312 352.429688 C 144.375 351.777344 141.695312 351.058594 139.03125 350.273438 C 136.371094 349.488281 133.726562 348.640625 131.105469 347.726562 C 128.484375 346.8125 125.890625 345.835938 123.316406 344.792969 C 120.742188 343.75 118.199219 342.648438 115.679688 341.480469 C 113.160156 340.3125 110.671875 339.085938 108.214844 337.796875 C 105.753906 336.511719 103.328125 335.160156 100.9375 333.753906 C 98.542969 332.347656 96.1875 330.882812 93.867188 329.359375 C 91.546875 327.835938 89.265625 326.257812 87.023438 324.621094 C 84.777344 322.988281 82.578125 321.296875 80.417969 319.554688 C 78.253906 317.8125 76.140625 316.019531 74.066406 314.171875 C 71.996094 312.324219 69.96875 310.429688 67.988281 308.480469 C 66.007812 306.535156 64.078125 304.542969 62.195312 302.5 C 60.316406 300.460938 58.484375 298.375 56.703125 296.246094 C 54.925781 294.113281 53.199219 291.941406 51.527344 289.726562 C 49.851562 287.511719 48.234375 285.257812 46.671875 282.960938 C 45.109375 280.667969 43.605469 278.335938 42.15625 275.96875 C 40.707031 273.597656 39.316406 271.195312 37.988281 268.761719 C 36.65625 266.324219 35.386719 263.855469 34.175781 261.355469 C 32.96875 258.859375 31.820312 256.332031 30.734375 253.777344 C 26.3125 243.320312 22.976562 232.523438 20.730469 221.394531 C 18.484375 210.265625 17.371094 199.019531 17.394531 187.667969 Z M 332.8125 187.667969 C 332.8125 185.285156 332.753906 182.902344 332.636719 180.523438 C 332.519531 178.140625 332.34375 175.765625 332.109375 173.394531 C 331.875 171.023438 331.582031 168.660156 331.230469 166.300781 C 330.878906 163.945312 330.472656 161.597656 330.007812 159.261719 C 329.542969 156.921875 329.019531 154.597656 328.441406 152.289062 C 327.859375 149.976562 327.222656 147.679688 326.53125 145.398438 C 325.839844 143.121094 325.09375 140.859375 324.289062 138.613281 C 323.484375 136.371094 322.628906 134.148438 321.714844 131.949219 C 320.804688 129.746094 319.835938 127.566406 318.820312 125.414062 C 317.800781 123.261719 316.726562 121.132812 315.605469 119.03125 C 314.480469 116.929688 313.304688 114.859375 312.082031 112.8125 C 310.855469 110.769531 309.582031 108.757812 308.257812 106.777344 C 306.933594 104.796875 305.5625 102.847656 304.140625 100.933594 C 302.722656 99.019531 301.253906 97.144531 299.742188 95.300781 C 298.230469 93.460938 296.675781 91.65625 295.074219 89.890625 C 293.476562 88.125 291.832031 86.402344 290.148438 84.714844 C 288.464844 83.03125 286.738281 81.390625 284.972656 79.789062 C 283.207031 78.1875 281.402344 76.632812 279.5625 75.121094 C 277.71875 73.609375 275.839844 72.144531 273.925781 70.726562 C 272.011719 69.308594 270.066406 67.9375 268.085938 66.613281 C 266.105469 65.289062 264.089844 64.015625 262.046875 62.789062 C 260.003906 61.566406 257.929688 60.390625 255.832031 59.269531 C 253.730469 58.144531 251.601562 57.074219 249.449219 56.054688 C 247.292969 55.039062 245.117188 54.074219 242.914062 53.160156 C 240.714844 52.25 238.492188 51.390625 236.25 50.589844 C 234.003906 49.789062 231.742188 49.039062 229.464844 48.347656 C 227.183594 47.65625 224.886719 47.023438 222.578125 46.445312 C 220.265625 45.867188 217.941406 45.34375 215.605469 44.878906 C 213.269531 44.414062 210.921875 44.007812 208.566406 43.660156 C 206.207031 43.308594 203.84375 43.019531 201.472656 42.785156 C 199.101562 42.550781 196.726562 42.375 194.347656 42.257812 C 191.96875 42.144531 189.585938 42.085938 187.207031 42.085938 C 184.824219 42.085938 182.441406 42.144531 180.0625 42.261719 C 177.683594 42.378906 175.308594 42.554688 172.9375 42.789062 C 170.566406 43.019531 168.203125 43.3125 165.847656 43.664062 C 163.488281 44.011719 161.144531 44.421875 158.804688 44.886719 C 156.46875 45.351562 154.144531 45.871094 151.835938 46.453125 C 149.523438 47.03125 147.230469 47.667969 144.949219 48.359375 C 142.667969 49.050781 140.40625 49.796875 138.164062 50.601562 C 135.921875 51.402344 133.699219 52.261719 131.5 53.171875 C 129.296875 54.085938 127.121094 55.050781 124.964844 56.070312 C 122.8125 57.089844 120.6875 58.160156 118.585938 59.285156 C 116.484375 60.40625 114.410156 61.582031 112.367188 62.804688 C 110.324219 64.03125 108.3125 65.304688 106.332031 66.628906 C 104.351562 67.953125 102.402344 69.324219 100.488281 70.746094 C 98.578125 72.164062 96.699219 73.628906 94.859375 75.144531 C 93.015625 76.65625 91.210938 78.210938 89.445312 79.8125 C 87.683594 81.410156 85.957031 83.054688 84.273438 84.738281 C 82.589844 86.425781 80.945312 88.148438 79.347656 89.914062 C 77.746094 91.679688 76.191406 93.484375 74.679688 95.328125 C 73.167969 97.167969 71.703125 99.046875 70.28125 100.960938 C 68.863281 102.875 67.492188 104.824219 66.167969 106.804688 C 64.84375 108.785156 63.570312 110.796875 62.347656 112.839844 C 61.121094 114.886719 59.945312 116.957031 58.824219 119.058594 C 57.699219 121.160156 56.628906 123.289062 55.609375 125.445312 C 54.59375 127.597656 53.628906 129.777344 52.714844 131.976562 C 51.804688 134.179688 50.945312 136.402344 50.144531 138.644531 C 49.339844 140.886719 48.59375 143.152344 47.902344 145.429688 C 47.210938 147.710938 46.574219 150.007812 45.996094 152.320312 C 45.417969 154.628906 44.894531 156.953125 44.429688 159.292969 C 43.964844 161.628906 43.558594 163.976562 43.207031 166.332031 C 42.859375 168.691406 42.566406 171.054688 42.332031 173.425781 C 42.097656 175.796875 41.921875 178.171875 41.804688 180.554688 C 41.6875 182.933594 41.628906 185.316406 41.628906 187.699219 C 41.628906 190.082031 41.6875 192.464844 41.804688 194.84375 C 41.921875 197.222656 42.09375 199.597656 42.328125 201.972656 C 42.5625 204.34375 42.851562 206.707031 43.203125 209.0625 C 43.550781 211.421875 43.957031 213.769531 44.421875 216.105469 C 44.886719 218.441406 45.410156 220.765625 45.988281 223.078125 C 46.566406 225.390625 47.199219 227.6875 47.890625 229.96875 C 48.582031 232.246094 49.332031 234.511719 50.132812 236.753906 C 50.933594 238.996094 51.792969 241.21875 52.703125 243.421875 C 53.613281 245.625 54.578125 247.800781 55.597656 249.957031 C 56.617188 252.109375 57.6875 254.238281 58.808594 256.339844 C 59.929688 258.441406 61.105469 260.515625 62.328125 262.558594 C 63.554688 264.605469 64.828125 266.617188 66.152344 268.597656 C 67.472656 270.582031 68.84375 272.527344 70.261719 274.441406 C 71.683594 276.355469 73.148438 278.234375 74.660156 280.078125 C 76.167969 281.921875 77.722656 283.722656 79.324219 285.492188 C 80.921875 287.257812 82.566406 288.980469 84.25 290.667969 C 85.933594 292.351562 87.660156 293.996094 89.421875 295.597656 C 91.1875 297.199219 92.992188 298.753906 94.832031 300.265625 C 96.675781 301.777344 98.550781 303.246094 100.464844 304.664062 C 102.378906 306.085938 104.324219 307.457031 106.304688 308.78125 C 108.285156 310.105469 110.296875 311.378906 112.339844 312.605469 C 114.382812 313.832031 116.457031 315.007812 118.554688 316.128906 C 120.65625 317.253906 122.785156 318.324219 124.9375 319.34375 C 127.089844 320.363281 129.269531 321.332031 131.46875 322.242188 C 133.667969 323.15625 135.890625 324.015625 138.132812 324.816406 C 140.378906 325.621094 142.636719 326.367188 144.917969 327.0625 C 147.199219 327.753906 149.492188 328.390625 151.804688 328.96875 C 154.113281 329.550781 156.4375 330.070312 158.773438 330.539062 C 161.109375 331.003906 163.457031 331.410156 165.8125 331.761719 C 168.171875 332.113281 170.535156 332.402344 172.90625 332.636719 C 175.277344 332.871094 177.652344 333.046875 180.03125 333.167969 C 182.410156 333.285156 184.789062 333.34375 187.171875 333.34375 C 189.554688 333.34375 191.9375 333.28125 194.316406 333.164062 C 196.699219 333.042969 199.074219 332.867188 201.445312 332.632812 C 203.816406 332.394531 206.179688 332.101562 208.535156 331.75 C 210.894531 331.398438 213.242188 330.992188 215.578125 330.523438 C 217.914062 330.058594 220.238281 329.535156 222.550781 328.953125 C 224.859375 328.371094 227.15625 327.734375 229.4375 327.042969 C 231.714844 326.347656 233.976562 325.601562 236.222656 324.796875 C 238.464844 323.992188 240.6875 323.132812 242.886719 322.222656 C 245.089844 321.308594 247.265625 320.339844 249.417969 319.320312 C 251.574219 318.300781 253.699219 317.230469 255.800781 316.105469 C 257.902344 314.980469 259.976562 313.804688 262.019531 312.578125 C 264.0625 311.355469 266.074219 310.078125 268.054688 308.753906 C 270.039062 307.429688 271.984375 306.054688 273.898438 304.636719 C 275.8125 303.214844 277.691406 301.75 279.53125 300.238281 C 281.375 298.726562 283.175781 297.167969 284.941406 295.566406 C 286.707031 293.96875 288.433594 292.324219 290.117188 290.636719 C 291.804688 288.953125 293.445312 287.226562 295.046875 285.460938 C 296.648438 283.695312 298.203125 281.890625 299.714844 280.046875 C 301.226562 278.207031 302.691406 276.328125 304.113281 274.414062 C 305.53125 272.5 306.90625 270.550781 308.230469 268.570312 C 309.554688 266.589844 310.828125 264.574219 312.054688 262.53125 C 313.28125 260.488281 314.453125 258.414062 315.578125 256.3125 C 316.703125 254.210938 317.773438 252.082031 318.792969 249.929688 C 319.8125 247.773438 320.78125 245.597656 321.691406 243.394531 C 322.605469 241.191406 323.464844 238.96875 324.269531 236.726562 C 325.070312 234.484375 325.820312 232.21875 326.511719 229.941406 C 327.207031 227.660156 327.84375 225.363281 328.421875 223.050781 C 329.003906 220.738281 329.527344 218.414062 329.992188 216.078125 C 330.460938 213.742188 330.867188 211.394531 331.21875 209.035156 C 331.570312 206.679688 331.863281 204.3125 332.101562 201.941406 C 332.335938 199.570312 332.511719 197.191406 332.632812 194.8125 C 332.75 192.433594 332.8125 190.050781 332.8125 187.667969 Z M 332.8125 187.667969 " fill-opacity="1" fill-rule="nonzero"/></g><path fill="#000000" d="M 270.339844 177.71875 L 198.050781 100.582031 C 197.398438 99.886719 196.683594 99.257812 195.90625 98.703125 C 195.128906 98.148438 194.304688 97.671875 193.433594 97.28125 C 192.566406 96.886719 191.664062 96.582031 190.734375 96.367188 C 189.804688 96.148438 188.859375 96.027344 187.90625 95.996094 C 186.953125 95.964844 186.003906 96.027344 185.0625 96.183594 C 184.121094 96.339844 183.203125 96.589844 182.308594 96.925781 C 181.414062 97.261719 180.5625 97.683594 179.75 98.1875 C 178.941406 98.695312 178.1875 99.273438 177.492188 99.925781 C 176.792969 100.582031 176.167969 101.296875 175.613281 102.070312 C 175.054688 102.847656 174.582031 103.671875 174.1875 104.542969 C 173.792969 105.414062 173.488281 106.3125 173.273438 107.246094 C 173.054688 108.175781 172.933594 109.117188 172.902344 110.074219 C 172.871094 111.027344 172.933594 111.976562 173.089844 112.917969 C 173.246094 113.859375 173.492188 114.777344 173.828125 115.671875 C 174.164062 116.566406 174.585938 117.417969 175.089844 118.230469 C 175.59375 119.042969 176.171875 119.796875 176.824219 120.492188 L 225.234375 172.132812 L 114.578125 172.132812 C 106.53125 172.132812 100.09375 179.085938 100.09375 187.667969 C 100.09375 196.246094 106.53125 203.199219 114.578125 203.199219 L 225.234375 203.199219 L 176.824219 254.839844 C 176.171875 255.535156 175.589844 256.289062 175.085938 257.101562 C 174.578125 257.914062 174.15625 258.765625 173.820312 259.660156 C 173.484375 260.554688 173.234375 261.472656 173.078125 262.414062 C 172.921875 263.359375 172.859375 264.308594 172.890625 265.265625 C 172.917969 266.21875 173.042969 267.164062 173.257812 268.09375 C 173.476562 269.027344 173.78125 269.925781 174.171875 270.796875 C 174.566406 271.667969 175.042969 272.492188 175.597656 273.269531 C 176.15625 274.046875 176.78125 274.765625 177.480469 275.417969 C 178.175781 276.074219 178.929688 276.652344 179.742188 277.15625 C 180.554688 277.664062 181.40625 278.082031 182.300781 278.421875 C 183.195312 278.757812 184.113281 279.003906 185.054688 279.160156 C 186 279.316406 186.949219 279.378906 187.902344 279.347656 C 188.859375 279.316406 189.800781 279.195312 190.734375 278.976562 C 191.664062 278.761719 192.566406 278.453125 193.433594 278.058594 C 194.304688 277.664062 195.128906 277.191406 195.90625 276.632812 C 196.683594 276.078125 197.398438 275.449219 198.050781 274.75 L 270.339844 197.613281 C 270.96875 196.949219 271.53125 196.226562 272.023438 195.457031 C 272.515625 194.683594 272.933594 193.871094 273.269531 193.019531 C 273.609375 192.167969 273.863281 191.292969 274.035156 190.390625 C 274.210938 189.492188 274.296875 188.582031 274.296875 187.667969 C 274.296875 186.75 274.210938 185.839844 274.035156 184.941406 C 273.863281 184.042969 273.609375 183.164062 273.269531 182.3125 C 272.933594 181.460938 272.515625 180.648438 272.023438 179.875 C 271.53125 179.105469 270.96875 178.382812 270.339844 177.71875 Z M 270.339844 177.71875 " fill-opacity="1" fill-rule="nonzero"/></svg>