<svg xmlns="http://www.w3.org/2000/svg" xmlns:xlink="http://www.w3.org/1999/xlink" width="500" zoomAndPan="magnify" viewBox="0 0 375 374.999991" height="500" preserveAspectRatio="xMidYMid meet" version="1.0"><defs><clipPath id="fd3cc4e1d4"><path d="M 187.5 0 C 83.945312 0 0 83.945312 0 187.5 C 0 291.054688 83.945312 375 187.5 375 C 291.054688 375 375 291.054688 375 187.5 C 375 83.945312 291.054688 0 187.5 0 Z M 187.5 0 " clip-rule="nonzero"/></clipPath><clipPath id="f8a1bb8537"><path d="M 33.164062 94.703125 L 342 94.703125 L 342 279.953125 L 33.164062 279.953125 Z M 33.164062 94.703125 " clip-rule="nonzero"/></clipPath></defs><g clip-path="url(#fd3cc4e1d4)"><rect x="-37.5" width="450" fill="#333333" y="-37.499999" height="449.999989" fill-opacity="1"/></g><g clip-path="url(#f8a1bb8537)"><path fill="#ffffff" d="M 187.503906 94.84375 C 146.292969 94.84375 120.667969 115.375 110.328125 156.585938 C 125.761719 136.054688 143.824219 128.339844 164.351562 133.433594 C 176.082031 136.363281 184.570312 144.855469 193.832031 154.269531 C 208.957031 169.703125 226.089844 187.453125 264.679688 187.453125 C 305.890625 187.453125 331.511719 166.925781 341.851562 125.714844 C 326.417969 146.242188 308.359375 153.960938 287.832031 148.867188 C 276.097656 145.933594 267.765625 137.445312 258.351562 128.03125 C 243.222656 112.59375 226.089844 94.84375 187.503906 94.84375 Z M 110.328125 187.453125 C 69.117188 187.453125 43.496094 207.984375 33.152344 249.195312 C 48.589844 228.667969 66.648438 220.949219 87.175781 226.042969 C 98.90625 228.976562 107.242188 237.464844 116.65625 246.878906 C 131.78125 262.316406 148.914062 280.0625 187.503906 280.0625 C 228.714844 280.0625 254.335938 259.535156 264.679688 218.324219 C 249.242188 238.855469 231.183594 246.570312 210.65625 241.476562 C 198.925781 238.546875 190.589844 230.054688 181.175781 220.640625 C 166.046875 205.207031 148.914062 187.453125 110.328125 187.453125 Z M 110.328125 187.453125 " fill-opacity="1" fill-rule="nonzero"/></g></svg>