<svg xmlns="http://www.w3.org/2000/svg" xmlns:xlink="http://www.w3.org/1999/xlink" width="500" zoomAndPan="magnify" viewBox="0 0 375 374.999991" height="500" preserveAspectRatio="xMidYMid meet" version="1.0"><path fill="#3747d6" d="M 51.136719 0 C 22.894531 0 0 22.894531 0 51.136719 L 0 323.863281 C 0 352.105469 22.894531 375 51.136719 375 L 323.863281 375 C 352.105469 375 375 352.105469 375 323.863281 L 375 51.136719 C 375 22.894531 352.105469 0 323.863281 0 Z M 51.136719 0 " fill-opacity="1" fill-rule="nonzero"/><path fill="#90caea" d="M 51.136719 0 C 22.894531 0 0 22.894531 0 51.136719 L 0 85.226562 C 0 94.640625 7.632812 102.273438 17.046875 102.273438 L 357.953125 102.273438 C 367.367188 102.273438 375 94.640625 375 85.226562 L 375 51.136719 C 375 22.894531 352.105469 0 323.863281 0 Z M 51.136719 0 " fill-opacity="1" fill-rule="nonzero"/><path fill="#90caea" d="M 196.023438 136.363281 C 196.023438 126.949219 203.652344 119.316406 213.066406 119.316406 L 306.816406 119.316406 L 306.816406 153.410156 L 230.113281 153.410156 L 230.113281 204.546875 L 306.816406 204.546875 C 316.230469 204.546875 323.863281 212.175781 323.863281 221.589844 L 323.863281 306.816406 C 323.863281 316.230469 316.230469 323.863281 306.816406 323.863281 L 213.066406 323.863281 L 213.066406 289.773438 L 289.773438 289.773438 L 289.773438 238.636719 L 213.066406 238.636719 C 203.652344 238.636719 196.023438 231.003906 196.023438 221.589844 Z M 196.023438 136.363281 " fill-opacity="1" fill-rule="evenodd"/><path fill="#90caea" d="M 93.75 153.410156 L 51.136719 153.410156 L 51.136719 119.316406 L 170.453125 119.316406 L 170.453125 153.410156 L 127.839844 153.410156 L 127.839844 306.816406 L 93.75 306.816406 Z M 93.75 153.410156 " fill-opacity="1" fill-rule="evenodd"/></svg>