<svg xmlns="http://www.w3.org/2000/svg" xmlns:xlink="http://www.w3.org/1999/xlink" width="500" zoomAndPan="magnify" viewBox="0 0 375 374.999991" height="500" preserveAspectRatio="xMidYMid meet" version="1.0"><rect x="-37.5" width="450" fill="#ffffff" y="-37.499999" height="449.999989" fill-opacity="1"/><rect x="-37.5" width="450" fill="#ffffff" y="-37.499999" height="449.999989" fill-opacity="1"/><path fill="#000000" d="M 340.21875 33.609375 C 302.792969 -3.789062 241.910156 -3.789062 204.507812 33.609375 L 158.546875 79.523438 C 151.683594 86.386719 151.683594 97.503906 158.546875 104.363281 C 165.414062 111.226562 176.539062 111.226562 183.40625 104.363281 L 229.367188 58.449219 C 287.953125 3.453125 370.519531 85.933594 315.359375 144.382812 C 315.359375 144.378906 261.652344 198.0625 261.652344 198.0625 C 234.460938 225.976562 185.914062 219.917969 166.457031 186.214844 C 161.5 177.855469 150.710938 175.121094 142.367188 180.0625 C 123.988281 191.640625 139.644531 212.199219 150.789062 222.902344 C 169.5 241.601562 194.070312 250.945312 218.644531 250.945312 C 243.226562 250.945312 267.796875 241.601562 286.507812 222.902344 L 340.21875 169.230469 C 377.464844 133.519531 377.484375 69.308594 340.21875 33.609375 Z M 340.21875 33.609375 " fill-opacity="1" fill-rule="nonzero"/><path fill="#000000" d="M 189.996094 269.664062 L 144.039062 315.582031 C 85.886719 370.746094 2.835938 287.796875 58.046875 229.648438 C 58.042969 229.648438 111.753906 175.96875 111.753906 175.96875 C 138.90625 148.113281 187.371094 154.046875 206.855469 187.710938 C 211.800781 196.074219 222.601562 198.828125 230.933594 193.863281 C 249.285156 182.351562 233.699219 161.742188 222.613281 151.128906 C 185.191406 113.730469 124.320312 113.753906 86.894531 151.128906 C 86.894531 151.128906 33.1875 204.808594 33.1875 204.808594 C -27.277344 264.390625 17.0625 369.445312 101.042969 368.460938 C 125.613281 368.464844 150.195312 359.121094 168.894531 340.421875 L 214.855469 294.503906 C 230.902344 277.882812 206.621094 253.621094 189.996094 269.664062 Z M 189.996094 269.664062 " fill-opacity="1" fill-rule="nonzero"/></svg>