<svg xmlns="http://www.w3.org/2000/svg" xmlns:xlink="http://www.w3.org/1999/xlink" width="500" zoomAndPan="magnify" viewBox="0 0 375 374.999991" height="500" preserveAspectRatio="xMidYMid meet" version="1.0"><defs><clipPath id="0752e16017"><path d="M 0 6.328125 L 375 6.328125 L 375 244 L 0 244 Z M 0 6.328125 " clip-rule="nonzero"/></clipPath><clipPath id="b6764a4417"><path d="M 87 331 L 288 331 L 288 368.578125 L 87 368.578125 Z M 87 331 " clip-rule="nonzero"/></clipPath></defs><rect x="-37.5" width="450" fill="#ffffff" y="-37.499999" height="449.999989" fill-opacity="1"/><rect x="-37.5" width="450" fill="#ffffff" y="-37.499999" height="449.999989" fill-opacity="1"/><g clip-path="url(#0752e16017)"><path fill="#c40f0f" d="M 368.671875 243.726562 L 6.328125 243.726562 C 2.878906 243.726562 0.0820312 240.925781 0.0820312 237.476562 L 0.0820312 31.324219 C 0.0820312 17.542969 11.292969 6.328125 25.078125 6.328125 L 349.921875 6.328125 C 363.707031 6.328125 374.917969 17.542969 374.917969 31.324219 L 374.917969 237.476562 C 374.917969 240.925781 372.121094 243.726562 368.671875 243.726562 Z M 12.574219 231.230469 L 362.425781 231.230469 L 362.425781 31.324219 C 362.425781 24.425781 356.816406 18.824219 349.921875 18.824219 L 25.078125 18.824219 C 18.183594 18.824219 12.574219 24.425781 12.574219 31.324219 Z M 12.574219 231.230469 " fill-opacity="1" fill-rule="nonzero"/></g><path fill="#c40f0f" d="M 349.921875 293.703125 L 25.078125 293.703125 C 11.292969 293.703125 0.0820312 282.492188 0.0820312 268.707031 L 0.0820312 237.476562 C 0.0820312 234.03125 2.878906 231.230469 6.328125 231.230469 L 368.671875 231.230469 C 372.121094 231.230469 374.917969 234.03125 374.917969 237.476562 L 374.917969 268.707031 C 374.917969 282.492188 363.707031 293.703125 349.921875 293.703125 Z M 12.574219 243.726562 L 12.574219 268.707031 C 12.574219 275.605469 18.183594 281.210938 25.078125 281.210938 L 349.921875 281.210938 C 356.816406 281.210938 362.425781 275.605469 362.425781 268.707031 L 362.425781 243.726562 Z M 12.574219 243.726562 " fill-opacity="1" fill-rule="nonzero"/><path fill="#c40f0f" d="M 206.242188 268.714844 L 168.757812 268.714844 C 165.308594 268.714844 162.511719 265.917969 162.511719 262.46875 C 162.511719 259.019531 165.308594 256.21875 168.757812 256.21875 L 206.242188 256.21875 C 209.691406 256.21875 212.488281 259.019531 212.488281 262.46875 C 212.488281 265.917969 209.691406 268.714844 206.242188 268.714844 Z M 206.242188 268.714844 " fill-opacity="1" fill-rule="nonzero"/><path fill="#c40f0f" d="M 343.683594 243.726562 L 31.316406 243.726562 C 27.867188 243.726562 25.070312 240.925781 25.070312 237.476562 L 25.070312 37.566406 C 25.070312 34.117188 27.867188 31.316406 31.316406 31.316406 L 343.683594 31.316406 C 347.132812 31.316406 349.929688 34.117188 349.929688 37.566406 L 349.929688 237.476562 C 349.929688 240.925781 347.132812 243.726562 343.683594 243.726562 Z M 37.566406 231.230469 L 337.433594 231.230469 L 337.433594 43.8125 L 37.566406 43.8125 Z M 37.566406 231.230469 " fill-opacity="1" fill-rule="nonzero"/><g clip-path="url(#b6764a4417)"><path fill="#c40f0f" d="M 268.714844 368.671875 L 106.285156 368.671875 C 95.953125 368.671875 87.542969 360.261719 87.542969 349.929688 C 87.542969 339.597656 95.953125 331.1875 106.285156 331.1875 L 268.714844 331.1875 C 279.046875 331.1875 287.457031 339.597656 287.457031 349.929688 C 287.457031 360.261719 279.046875 368.671875 268.714844 368.671875 Z M 106.285156 343.683594 C 102.835938 343.683594 100.039062 346.488281 100.039062 349.929688 C 100.039062 353.371094 102.835938 356.175781 106.285156 356.175781 L 268.714844 356.175781 C 272.164062 356.175781 274.960938 353.371094 274.960938 349.929688 C 274.960938 346.488281 272.164062 343.683594 268.714844 343.683594 Z M 106.285156 343.683594 " fill-opacity="1" fill-rule="nonzero"/></g><path fill="#c40f0f" d="M 256.21875 343.683594 L 118.78125 343.683594 C 115.332031 343.683594 112.53125 340.882812 112.53125 337.433594 C 112.53125 333.988281 115.332031 331.1875 118.78125 331.1875 C 139.507812 331.1875 150.015625 316.476562 150.015625 287.457031 C 150.015625 284.007812 152.816406 281.210938 156.261719 281.210938 L 218.738281 281.210938 C 222.183594 281.210938 224.984375 284.007812 224.984375 287.457031 C 224.984375 316.476562 235.492188 331.1875 256.21875 331.1875 C 259.667969 331.1875 262.46875 333.988281 262.46875 337.433594 C 262.46875 340.882812 259.667969 343.683594 256.21875 343.683594 Z M 149.210938 331.1875 L 225.796875 331.1875 C 218.097656 322.667969 213.570312 309.976562 212.664062 293.703125 L 162.34375 293.703125 C 161.429688 309.976562 156.902344 322.667969 149.210938 331.1875 Z M 149.210938 331.1875 " fill-opacity="1" fill-rule="nonzero"/><path fill="#c40f0f" d="M 187.5 243.726562 L 31.316406 243.726562 C 27.867188 243.726562 25.070312 240.925781 25.070312 237.476562 L 25.070312 37.566406 C 25.070312 34.117188 27.867188 31.316406 31.316406 31.316406 L 187.5 31.316406 C 190.949219 31.316406 193.746094 34.117188 193.746094 37.566406 L 193.746094 237.476562 C 193.746094 240.925781 190.949219 243.726562 187.5 243.726562 Z M 37.566406 231.230469 L 181.253906 231.230469 L 181.253906 43.8125 L 37.566406 43.8125 Z M 37.566406 231.230469 " fill-opacity="1" fill-rule="nonzero"/><path fill="#c40f0f" d="M 100.03125 218.738281 C 99.09375 218.738281 98.136719 218.523438 97.238281 218.082031 C 94.152344 216.539062 92.902344 212.78125 94.445312 209.695312 L 113.1875 172.210938 C 114.730469 169.125 118.492188 167.878906 121.570312 169.421875 C 124.660156 170.964844 125.90625 174.71875 124.363281 177.804688 L 105.621094 215.289062 C 104.53125 217.472656 102.324219 218.738281 100.03125 218.738281 Z M 100.03125 218.738281 " fill-opacity="1" fill-rule="nonzero"/><path fill="#c40f0f" d="M 56.304688 199.996094 C 54.707031 199.996094 53.109375 199.382812 51.890625 198.164062 C 49.445312 195.722656 49.445312 191.773438 51.890625 189.332031 L 70.632812 170.589844 C 73.066406 168.144531 77.027344 168.144531 79.464844 170.589844 C 81.90625 173.03125 81.90625 176.980469 79.464844 179.421875 L 60.722656 198.164062 C 59.503906 199.382812 57.90625 199.996094 56.304688 199.996094 Z M 56.304688 199.996094 " fill-opacity="1" fill-rule="nonzero"/><path fill="#c40f0f" d="M 75.046875 218.738281 C 73.449219 218.738281 71.851562 218.125 70.632812 216.90625 L 51.890625 198.164062 C 49.445312 195.722656 49.445312 191.773438 51.890625 189.332031 C 54.328125 186.886719 58.285156 186.886719 60.722656 189.332031 L 79.464844 208.074219 C 81.90625 210.515625 81.90625 214.464844 79.464844 216.90625 C 78.246094 218.125 76.648438 218.738281 75.046875 218.738281 Z M 75.046875 218.738281 " fill-opacity="1" fill-rule="nonzero"/><path fill="#c40f0f" d="M 162.511719 199.996094 C 160.910156 199.996094 159.3125 199.382812 158.09375 198.164062 L 139.351562 179.421875 C 136.910156 176.980469 136.910156 173.03125 139.351562 170.589844 C 141.789062 168.144531 145.75 168.144531 148.1875 170.589844 L 166.925781 189.332031 C 169.371094 191.773438 169.371094 195.722656 166.925781 198.164062 C 165.710938 199.382812 164.109375 199.996094 162.511719 199.996094 Z M 162.511719 199.996094 " fill-opacity="1" fill-rule="nonzero"/><path fill="#c40f0f" d="M 143.769531 218.738281 C 142.167969 218.738281 140.570312 218.125 139.351562 216.90625 C 136.910156 214.464844 136.910156 210.515625 139.351562 208.074219 L 158.09375 189.332031 C 160.53125 186.886719 164.492188 186.886719 166.925781 189.332031 C 169.371094 191.773438 169.371094 195.722656 166.925781 198.164062 L 148.1875 216.90625 C 146.96875 218.125 145.367188 218.738281 143.769531 218.738281 Z M 143.769531 218.738281 " fill-opacity="1" fill-rule="nonzero"/><path fill="#c40f0f" d="M 112.53125 112.53125 C 109.082031 112.53125 106.285156 109.734375 106.285156 106.285156 L 106.285156 62.554688 C 106.285156 59.105469 109.082031 56.304688 112.53125 56.304688 C 115.980469 56.304688 118.78125 59.105469 118.78125 62.554688 L 118.78125 106.285156 C 118.78125 109.734375 115.980469 112.53125 112.53125 112.53125 Z M 112.53125 112.53125 " fill-opacity="1" fill-rule="nonzero"/><path fill="#c40f0f" d="M 112.53125 150.015625 C 109.082031 150.015625 106.285156 147.21875 106.285156 143.769531 L 106.285156 131.273438 C 106.285156 127.824219 109.082031 125.027344 112.53125 125.027344 C 115.980469 125.027344 118.78125 127.824219 118.78125 131.273438 L 118.78125 143.769531 C 118.78125 147.21875 115.980469 150.015625 112.53125 150.015625 Z M 112.53125 150.015625 " fill-opacity="1" fill-rule="nonzero"/><path fill="#c40f0f" d="M 274.960938 68.800781 L 212.488281 68.800781 C 209.039062 68.800781 206.242188 66.003906 206.242188 62.554688 C 206.242188 59.105469 209.039062 56.304688 212.488281 56.304688 L 274.960938 56.304688 C 278.410156 56.304688 281.210938 59.105469 281.210938 62.554688 C 281.210938 66.003906 278.410156 68.800781 274.960938 68.800781 Z M 274.960938 68.800781 " fill-opacity="1" fill-rule="nonzero"/><path fill="#c40f0f" d="M 318.695312 68.800781 L 299.953125 68.800781 C 296.503906 68.800781 293.703125 66.003906 293.703125 62.554688 C 293.703125 59.105469 296.503906 56.304688 299.953125 56.304688 L 318.695312 56.304688 C 322.140625 56.304688 324.941406 59.105469 324.941406 62.554688 C 324.941406 66.003906 322.140625 68.800781 318.695312 68.800781 Z M 318.695312 68.800781 " fill-opacity="1" fill-rule="nonzero"/><path fill="#c40f0f" d="M 318.695312 93.789062 L 256.21875 93.789062 C 252.773438 93.789062 249.972656 90.992188 249.972656 87.542969 C 249.972656 84.09375 252.773438 81.296875 256.21875 81.296875 L 318.695312 81.296875 C 322.140625 81.296875 324.941406 84.09375 324.941406 87.542969 C 324.941406 90.992188 322.140625 93.789062 318.695312 93.789062 Z M 318.695312 93.789062 " fill-opacity="1" fill-rule="nonzero"/><path fill="#c40f0f" d="M 231.230469 93.789062 L 212.488281 93.789062 C 209.039062 93.789062 206.242188 90.992188 206.242188 87.542969 C 206.242188 84.09375 209.039062 81.296875 212.488281 81.296875 L 231.230469 81.296875 C 234.679688 81.296875 237.476562 84.09375 237.476562 87.542969 C 237.476562 90.992188 234.679688 93.789062 231.230469 93.789062 Z M 231.230469 93.789062 " fill-opacity="1" fill-rule="nonzero"/><path fill="#c40f0f" d="M 274.960938 118.78125 L 212.488281 118.78125 C 209.039062 118.78125 206.242188 115.980469 206.242188 112.53125 C 206.242188 109.082031 209.039062 106.285156 212.488281 106.285156 L 274.960938 106.285156 C 278.410156 106.285156 281.210938 109.082031 281.210938 112.53125 C 281.210938 115.980469 278.410156 118.78125 274.960938 118.78125 Z M 274.960938 118.78125 " fill-opacity="1" fill-rule="nonzero"/><path fill="#c40f0f" d="M 318.695312 118.78125 L 299.953125 118.78125 C 296.503906 118.78125 293.703125 115.980469 293.703125 112.53125 C 293.703125 109.082031 296.503906 106.285156 299.953125 106.285156 L 318.695312 106.285156 C 322.140625 106.285156 324.941406 109.082031 324.941406 112.53125 C 324.941406 115.980469 322.140625 118.78125 318.695312 118.78125 Z M 318.695312 118.78125 " fill-opacity="1" fill-rule="nonzero"/><path fill="#c40f0f" d="M 318.695312 143.769531 L 256.21875 143.769531 C 252.773438 143.769531 249.972656 140.96875 249.972656 137.523438 C 249.972656 134.074219 252.773438 131.273438 256.21875 131.273438 L 318.695312 131.273438 C 322.140625 131.273438 324.941406 134.074219 324.941406 137.523438 C 324.941406 140.96875 322.140625 143.769531 318.695312 143.769531 Z M 318.695312 143.769531 " fill-opacity="1" fill-rule="nonzero"/><path fill="#c40f0f" d="M 231.230469 143.769531 L 212.488281 143.769531 C 209.039062 143.769531 206.242188 140.96875 206.242188 137.523438 C 206.242188 134.074219 209.039062 131.273438 212.488281 131.273438 L 231.230469 131.273438 C 234.679688 131.273438 237.476562 134.074219 237.476562 137.523438 C 237.476562 140.96875 234.679688 143.769531 231.230469 143.769531 Z M 231.230469 143.769531 " fill-opacity="1" fill-rule="nonzero"/><path fill="#c40f0f" d="M 318.695312 218.738281 L 256.21875 218.738281 C 252.773438 218.738281 249.972656 215.9375 249.972656 212.488281 C 249.972656 209.039062 252.773438 206.242188 256.21875 206.242188 L 318.695312 206.242188 C 322.140625 206.242188 324.941406 209.039062 324.941406 212.488281 C 324.941406 215.9375 322.140625 218.738281 318.695312 218.738281 Z M 318.695312 218.738281 " fill-opacity="1" fill-rule="nonzero"/><path fill="#c40f0f" d="M 231.230469 218.738281 L 212.488281 218.738281 C 209.039062 218.738281 206.242188 215.9375 206.242188 212.488281 C 206.242188 209.039062 209.039062 206.242188 212.488281 206.242188 L 231.230469 206.242188 C 234.679688 206.242188 237.476562 209.039062 237.476562 212.488281 C 237.476562 215.9375 234.679688 218.738281 231.230469 218.738281 Z M 231.230469 218.738281 " fill-opacity="1" fill-rule="nonzero"/><path fill="#c40f0f" d="M 274.960938 168.757812 L 212.488281 168.757812 C 209.039062 168.757812 206.242188 165.960938 206.242188 162.511719 C 206.242188 159.0625 209.039062 156.261719 212.488281 156.261719 L 274.960938 156.261719 C 278.410156 156.261719 281.210938 159.0625 281.210938 162.511719 C 281.210938 165.960938 278.410156 168.757812 274.960938 168.757812 Z M 274.960938 168.757812 " fill-opacity="1" fill-rule="nonzero"/><path fill="#c40f0f" d="M 318.695312 168.757812 L 299.953125 168.757812 C 296.503906 168.757812 293.703125 165.960938 293.703125 162.511719 C 293.703125 159.0625 296.503906 156.261719 299.953125 156.261719 L 318.695312 156.261719 C 322.140625 156.261719 324.941406 159.0625 324.941406 162.511719 C 324.941406 165.960938 322.140625 168.757812 318.695312 168.757812 Z M 318.695312 168.757812 " fill-opacity="1" fill-rule="nonzero"/><path fill="#c40f0f" d="M 318.695312 193.746094 L 256.21875 193.746094 C 252.773438 193.746094 249.972656 190.949219 249.972656 187.5 C 249.972656 184.050781 252.773438 181.253906 256.21875 181.253906 L 318.695312 181.253906 C 322.140625 181.253906 324.941406 184.050781 324.941406 187.5 C 324.941406 190.949219 322.140625 193.746094 318.695312 193.746094 Z M 318.695312 193.746094 " fill-opacity="1" fill-rule="nonzero"/><path fill="#c40f0f" d="M 231.230469 193.746094 L 212.488281 193.746094 C 209.039062 193.746094 206.242188 190.949219 206.242188 187.5 C 206.242188 184.050781 209.039062 181.253906 212.488281 181.253906 L 231.230469 181.253906 C 234.679688 181.253906 237.476562 184.050781 237.476562 187.5 C 237.476562 190.949219 234.679688 193.746094 231.230469 193.746094 Z M 231.230469 193.746094 " fill-opacity="1" fill-rule="nonzero"/></svg>